<?xml version="1.0" encoding="UTF-8" standalone="no"?>
<svg
   xmlns:dc="http://purl.org/dc/elements/1.1/"
   xmlns:cc="http://creativecommons.org/ns#"
   xmlns:rdf="http://www.w3.org/1999/02/22-rdf-syntax-ns#"
   xmlns:svg="http://www.w3.org/2000/svg"
   xmlns="http://www.w3.org/2000/svg"
   xmlns:sodipodi="http://sodipodi.sourceforge.net/DTD/sodipodi-0.dtd"
   xmlns:inkscape="http://www.inkscape.org/namespaces/inkscape"
   id="Layer_1"
   viewBox="0 0 788.44 510"
   version="1.1"
   sodipodi:docname="svr_theater.svg"
   inkscape:version="0.92.4 (5da689c313, 2019-01-14)">
  <metadata
     id="metadata871">
    <rdf:RDF>
      <cc:Work
         rdf:about="">
        <dc:format>image/svg+xml</dc:format>
        <dc:type
           rdf:resource="http://purl.org/dc/dcmitype/StillImage" />
      </cc:Work>
    </rdf:RDF>
  </metadata>
  <sodipodi:namedview
     pagecolor="#ffffff"
     bordercolor="#666666"
     borderopacity="1"
     objecttolerance="10"
     gridtolerance="10"
     guidetolerance="10"
     inkscape:pageopacity="0"
     inkscape:pageshadow="2"
     inkscape:window-width="2560"
     inkscape:window-height="1537"
     id="namedview869"
     showgrid="false"
     inkscape:zoom="0.39825478"
     inkscape:cx="394.22"
     inkscape:cy="656.75287"
     inkscape:window-x="-8"
     inkscape:window-y="-8"
     inkscape:window-maximized="1"
     inkscape:current-layer="Layer_1" />
  <defs
     id="defs860">
    <style
       id="style858">.cls-1{fill:#fff;}</style>
  </defs>
  <path
     class="cls-1"
     d="M662.33,76c27.68,0,50.11,22.44,50.11,50.11V383.89c0,27.68-22.44,50.11-50.11,50.11H126.11c-27.68,0-50.11-22.44-50.11-50.11V126.11c0-27.68,22.44-50.11,50.11-50.11H662.33m0-76H126.11c-16.99,0-33.51,3.34-49.11,9.94-15.03,6.36-28.51,15.44-40.06,27-11.56,11.56-20.64,25.04-27,40.06C3.34,92.6,0,109.12,0,126.11V383.89c0,16.99,3.35,33.52,9.94,49.11,6.36,15.03,15.44,28.5,27,40.06,11.56,11.56,25.04,20.64,40.06,27,15.6,6.6,32.12,9.94,49.11,9.94H662.33c16.99,0,33.52-3.34,49.11-9.94,15.03-6.36,28.51-15.44,40.06-27,11.56-11.56,20.64-25.04,27-40.06,6.6-15.6,9.94-32.12,9.94-49.11V126.11c0-16.99-3.34-33.51-9.94-49.11-6.36-15.03-15.44-28.51-27-40.06-11.56-11.56-25.04-20.64-40.06-27-15.6-6.6-32.12-9.94-49.11-9.94h0Z"
     id="path862"
     style="fill:#000000;fill-opacity:1" />
  <path
     class="cls-1"
     d="M144.18,249.62c-20.99,0-38-17.01-38-38v-67.13c0-21.12,17.19-38.31,38.31-38.31h67.13c20.99,0,38,17.01,38,38s-17.01,38-38,38h-29.44v29.44c0,20.99-17.01,38-38,38Z"
     id="path864"
     style="fill:#000000;fill-opacity:1" />
  <path
     class="cls-1"
     d="M643.95,403.82h-67.13c-20.99,0-38-17.01-38-38s17.01-38,38-38h29.44v-29.44c0-20.99,17.01-38,38-38s38,17.01,38,38v67.13c0,21.12-17.19,38.31-38.31,38.31Z"
     id="path866"
     style="fill:#000000;fill-opacity:1" />
</svg>
