<svg xmlns="http://www.w3.org/2000/svg" width="351.825" height="196.42" viewBox="0 0 351.825 196.42">
  <g id="Group_351" data-name="Group 351" transform="translate(-5306.685 -2397.942)">
    <line id="Line_747" data-name="Line 747" y1="101.396" x2="175.825" transform="translate(5307.185 2492.1)" fill="none" stroke="#5380f2" stroke-width="2"/>
    <line id="Line_729" data-name="Line 729" x1="174.998" y1="101.396" transform="translate(5483.01 2492.1)" fill="none" stroke="#5380f2" stroke-width="2"/>
    <path id="Path_266" data-name="Path 266" d="M410.137,190.277q-5.128-14.695-10.252-29.389c-3.13-8.99-8.776-12.89-15.856-13.4-3.137-.224-6.308.526-9.467.7a9.563,9.563,0,0,1-2.688-.744c.94-2,1.58-3.633,2.407-5.077,5.46-9.522,5.856-19.249,1.087-29.5-5.125-11.019-12.763-17.219-22.047-20.226a25.251,25.251,0,0,0-8.278-1.252c-5.006,0-11.382,3.546-15.541,9.9-4.934,7.538-4.233,20.437-1.388,27.966s6.875,13.874,12.842,17.5c1.912,1.161,3.909,2.071,6.647,3.5-1.331,1.374-1.968,2.526-2.769,2.783-10.515,3.374-17.681,9.293-22.1,22.532-1.462,4.379-4.482,8-7.157,11.459-5.621,7.274-18.371,22.086-18.371,23.106,2.319,5.762,5.758,12.767,7.823,17.9l22.331-27.5a60.135,60.135,0,0,1,2.438,19.017c-.078,5.025-.958,18.739-.958,18.739l6.934.765-.307,6.965c-.961,8.159-2.518,24.553-2.518,24.553l-.362,4.149s12.928,2.325,17.818,3.226h1.531c1.14-9.133,3.431-32.469,3.992-38.233l7.95.417-.488,17.525-.449,9.2,20.215,2.206.5-10.587.9-17.01,8.582.205h0l1.007.024.182-8.179s.718-34.962-4.346-55.428c-.8-3.226-1.491-5.3-.225-6.121s2.183.343,3.292,4.46c1.921,7.139,4.359,13.423,4.359,13.423l1.856,5.775c.606-.246,10.847-3.291,11.472-3.454-.177-.8-.429-1.227-.6-1.9" transform="translate(5126.789 2307.553)" stroke="#fff" stroke-width="2"/>
  </g>
</svg>
