<svg xmlns="http://www.w3.org/2000/svg" width="352.824" height="305.562" viewBox="0 0 352.824 305.562">
  <g id="Group_347" data-name="Group 347" transform="translate(-5306.185 -577.8)">
    <line id="Line_568" data-name="Line 568" y2="202.433" transform="translate(5307.185 680.063)" fill="none" stroke="#5380f2" stroke-width="2"/>
    <line id="Line_569" data-name="Line 569" y2="202.433" transform="translate(5365.793 646.264)" fill="none" stroke="#5380f2" stroke-width="2"/>
    <line id="Line_570" data-name="Line 570" y2="202.433" transform="translate(5424.401 612.465)" fill="none" stroke="#5380f2" stroke-width="2"/>
    <line id="Line_571" data-name="Line 571" y2="202.433" transform="translate(5326.602 668.916)" fill="none" stroke="#5380f2" stroke-width="2"/>
    <line id="Line_572" data-name="Line 572" y2="202.433" transform="translate(5385.209 635.118)" fill="none" stroke="#5380f2" stroke-width="2"/>
    <line id="Line_573" data-name="Line 573" y2="202.433" transform="translate(5443.818 601.319)" fill="none" stroke="#5380f2" stroke-width="2"/>
    <line id="Line_574" data-name="Line 574" y2="202.433" transform="translate(5346.377 657.41)" fill="none" stroke="#5380f2" stroke-width="2"/>
    <line id="Line_575" data-name="Line 575" y2="202.433" transform="translate(5404.985 623.611)" fill="none" stroke="#5380f2" stroke-width="2"/>
    <line id="Line_576" data-name="Line 576" y2="202.433" transform="translate(5463.594 589.813)" fill="none" stroke="#5380f2" stroke-width="2"/>
    <line id="Line_577" data-name="Line 577" y1="101.396" x2="175.825" transform="translate(5307.185 668.557)" fill="none" stroke="#5380f2" stroke-width="2"/>
    <line id="Line_578" data-name="Line 578" y1="101.396" x2="175.825" transform="translate(5307.185 713.502)" fill="none" stroke="#5380f2" stroke-width="2"/>
    <line id="Line_579" data-name="Line 579" y1="101.396" x2="175.825" transform="translate(5307.185 758.447)" fill="none" stroke="#5380f2" stroke-width="2"/>
    <line id="Line_580" data-name="Line 580" y1="101.396" x2="175.825" transform="translate(5307.185 623.611)" fill="none" stroke="#5380f2" stroke-width="2"/>
    <line id="Line_581" data-name="Line 581" y1="101.396" x2="175.825" transform="translate(5307.185 578.667)" fill="none" stroke="#5380f2" stroke-width="2"/>
    <line id="Line_582" data-name="Line 582" y1="101.396" x2="175.825" transform="translate(5307.185 691.209)" fill="none" stroke="#5380f2" stroke-width="2"/>
    <line id="Line_583" data-name="Line 583" y1="101.396" x2="175.825" transform="translate(5307.185 736.154)" fill="none" stroke="#5380f2" stroke-width="2"/>
    <line id="Line_584" data-name="Line 584" y1="101.396" x2="175.825" transform="translate(5307.185 781.1)" fill="none" stroke="#5380f2" stroke-width="2"/>
    <line id="Line_585" data-name="Line 585" y1="101.396" x2="175.825" transform="translate(5307.185 646.264)" fill="none" stroke="#5380f2" stroke-width="2"/>
    <line id="Line_586" data-name="Line 586" y1="101.396" x2="175.825" transform="translate(5307.185 601.319)" fill="none" stroke="#5380f2" stroke-width="2"/>
    <line id="Line_587" data-name="Line 587" x1="174.998" y1="101.396" transform="translate(5483.01 668.557)" fill="none" stroke="#5380f2" stroke-width="2"/>
    <line id="Line_588" data-name="Line 588" x1="174.998" y1="101.396" transform="translate(5483.01 713.502)" fill="none" stroke="#5380f2" stroke-width="2"/>
    <line id="Line_589" data-name="Line 589" x1="174.998" y1="101.396" transform="translate(5483.01 758.447)" fill="none" stroke="#5380f2" stroke-width="2"/>
    <line id="Line_590" data-name="Line 590" x1="174.998" y1="101.396" transform="translate(5483.01 623.611)" fill="none" stroke="#5380f2" stroke-width="2"/>
    <line id="Line_591" data-name="Line 591" x1="174.998" y1="101.396" transform="translate(5483.01 578.667)" fill="none" stroke="#5380f2" stroke-width="2"/>
    <line id="Line_592" data-name="Line 592" x1="174.998" y1="101.396" transform="translate(5483.01 691.209)" fill="none" stroke="#5380f2" stroke-width="2"/>
    <line id="Line_593" data-name="Line 593" x1="174.998" y1="101.396" transform="translate(5483.01 736.154)" fill="none" stroke="#5380f2" stroke-width="2"/>
    <line id="Line_594" data-name="Line 594" x1="174.998" y1="101.396" transform="translate(5483.01 781.1)" fill="none" stroke="#5380f2" stroke-width="2"/>
    <line id="Line_595" data-name="Line 595" x1="174.998" y1="101.396" transform="translate(5483.01 646.264)" fill="none" stroke="#5380f2" stroke-width="2"/>
    <line id="Line_596" data-name="Line 596" x1="174.998" y1="101.396" transform="translate(5483.01 601.319)" fill="none" stroke="#5380f2" stroke-width="2"/>
    <line id="Line_597" data-name="Line 597" y2="202.433" transform="translate(5483.01 579.026)" fill="none" stroke="#5380f2" stroke-width="2"/>
    <line id="Line_598" data-name="Line 598" y2="202.433" transform="translate(5658.009 679.344)" fill="none" stroke="#5380f2" stroke-width="2"/>
    <line id="Line_599" data-name="Line 599" y2="202.433" transform="translate(5599.44 645.545)" fill="none" stroke="#5380f2" stroke-width="2"/>
    <line id="Line_600" data-name="Line 600" y2="202.433" transform="translate(5540.872 611.746)" fill="none" stroke="#5380f2" stroke-width="2"/>
    <line id="Line_601" data-name="Line 601" y2="202.433" transform="translate(5638.592 668.197)" fill="none" stroke="#5380f2" stroke-width="2"/>
    <line id="Line_602" data-name="Line 602" y2="202.433" transform="translate(5580.037 634.398)" fill="none" stroke="#5380f2" stroke-width="2"/>
    <line id="Line_603" data-name="Line 603" y2="202.433" transform="translate(5521.483 600.6)" fill="none" stroke="#5380f2" stroke-width="2"/>
    <line id="Line_604" data-name="Line 604" y2="202.433" transform="translate(5618.843 656.691)" fill="none" stroke="#5380f2" stroke-width="2"/>
    <line id="Line_605" data-name="Line 605" y2="202.433" transform="translate(5560.275 622.893)" fill="none" stroke="#5380f2" stroke-width="2"/>
    <line id="Line_606" data-name="Line 606" y2="202.433" transform="translate(5501.707 589.094)" fill="none" stroke="#5380f2" stroke-width="2"/>
    <path id="Path_262" data-name="Path 262" d="M410.137,190.277q-5.128-14.695-10.252-29.389c-3.13-8.99-8.776-12.89-15.856-13.4-3.137-.224-6.308.526-9.467.7a9.563,9.563,0,0,1-2.688-.744c.94-2,1.58-3.633,2.407-5.077,5.46-9.522,5.856-19.249,1.087-29.5-5.125-11.019-12.763-17.219-22.047-20.226a25.251,25.251,0,0,0-8.278-1.252c-5.006,0-11.382,3.546-15.541,9.9-4.934,7.538-4.233,20.437-1.388,27.966s6.875,13.874,12.842,17.5c1.912,1.161,3.909,2.071,6.647,3.5-1.331,1.374-1.968,2.526-2.769,2.783-10.515,3.374-17.681,9.293-22.1,22.532-1.462,4.379-4.482,8-7.157,11.459-5.621,7.274-18.371,22.086-18.371,23.106,2.319,5.762,5.758,12.767,7.823,17.9l22.331-27.5a60.135,60.135,0,0,1,2.438,19.017c-.078,5.025-.958,18.739-.958,18.739l6.934.765-.307,6.965c-.961,8.159-2.518,24.553-2.518,24.553l-.362,4.149s12.928,2.325,17.818,3.226h1.531c1.14-9.133,3.431-32.469,3.992-38.233l7.95.417-.488,17.525-.449,9.2,20.215,2.206.5-10.587.9-17.01,8.582.205h0l1.007.024.182-8.179s.718-34.962-4.346-55.428c-.8-3.226-1.491-5.3-.225-6.121s2.183.343,3.292,4.46c1.921,7.139,4.359,13.423,4.359,13.423l1.856,5.775c.606-.246,10.847-3.291,11.472-3.454-.177-.8-.429-1.227-.6-1.9" transform="translate(5126.789 596.553)" stroke="#fff" stroke-width="2"/>
  </g>
</svg>
