<svg xmlns="http://www.w3.org/2000/svg" width="352.824" height="305.562" viewBox="0 0 352.824 305.562">
  <g id="Group_349" data-name="Group 349" transform="translate(-5306.185 -1454.8)">
    <line id="Line_684" data-name="Line 684" y2="202.433" transform="translate(5307.185 1557.063)" fill="none" stroke="#5380f2" stroke-width="2"/>
    <line id="Line_676" data-name="Line 676" y1="101.396" x2="175.825" transform="translate(5307.185 1455.667)" fill="none" stroke="#5380f2" stroke-width="2"/>
    <line id="Line_669" data-name="Line 669" y1="101.396" x2="175.825" transform="translate(5307.185 1658.1)" fill="none" stroke="#5380f2" stroke-width="2"/>
    <line id="Line_677" data-name="Line 677" x1="174.998" y1="101.396" transform="translate(5483.01 1455.667)" fill="none" stroke="#5380f2" stroke-width="2"/>
    <line id="Line_651" data-name="Line 651" x1="174.998" y1="101.396" transform="translate(5483.01 1658.1)" fill="none" stroke="#5380f2" stroke-width="2"/>
    <line id="Line_671" data-name="Line 671" y2="202.433" transform="translate(5483.01 1456.026)" fill="none" stroke="#5380f2" stroke-width="2"/>
    <line id="Line_652" data-name="Line 652" y2="202.433" transform="translate(5658.009 1556.344)" fill="none" stroke="#5380f2" stroke-width="2"/>
    <g id="Group_305" data-name="Group 305">
      <line id="Line_767" data-name="Line 767" y2="22.769" transform="translate(5385.209 1546.899)" fill="none" stroke="#5380f2" stroke-width="2"/>
      <line id="Line_779" data-name="Line 779" y2="22.769" transform="translate(5385.209 1603.899)" fill="none" stroke="#5380f2" stroke-width="2"/>
      <line id="Line_784" data-name="Line 784" y2="22.769" transform="translate(5385.209 1660.899)" fill="none" stroke="#5380f2" stroke-width="2"/>
      <line id="Line_768" data-name="Line 768" y1="11.405" x2="19.776" transform="translate(5385.209 1535.494)" fill="none" stroke="#5380f2" stroke-width="2"/>
      <line id="Line_780" data-name="Line 780" y1="11.405" x2="19.776" transform="translate(5385.209 1592.494)" fill="none" stroke="#5380f2" stroke-width="2"/>
      <line id="Line_783" data-name="Line 783" y1="11.405" x2="19.776" transform="translate(5385.209 1649.494)" fill="none" stroke="#5380f2" stroke-width="2"/>
      <line id="Line_769" data-name="Line 769" y1="11.405" x2="19.776" transform="translate(5385.209 1558.263)" fill="none" stroke="#5380f2" stroke-width="2"/>
      <line id="Line_781" data-name="Line 781" y1="11.405" x2="19.776" transform="translate(5385.209 1615.263)" fill="none" stroke="#5380f2" stroke-width="2"/>
      <line id="Line_785" data-name="Line 785" y1="11.405" x2="19.776" transform="translate(5385.209 1672.263)" fill="none" stroke="#5380f2" stroke-width="2"/>
      <line id="Line_770" data-name="Line 770" y2="22.769" transform="translate(5404.985 1535.535)" fill="none" stroke="#5380f2" stroke-width="2"/>
      <line id="Line_782" data-name="Line 782" y2="22.769" transform="translate(5404.985 1592.535)" fill="none" stroke="#5380f2" stroke-width="2"/>
      <line id="Line_786" data-name="Line 786" y2="22.769" transform="translate(5404.985 1649.535)" fill="none" stroke="#5380f2" stroke-width="2"/>
    </g>
    <g id="Group_306" data-name="Group 306" transform="translate(-49 27)">
      <line id="Line_767-2" data-name="Line 767" y2="22.769" transform="translate(5385.209 1546.899)" fill="none" stroke="#5380f2" stroke-width="2"/>
      <line id="Line_779-2" data-name="Line 779" y2="22.769" transform="translate(5385.209 1603.899)" fill="none" stroke="#5380f2" stroke-width="2"/>
      <line id="Line_784-2" data-name="Line 784" y2="22.769" transform="translate(5385.209 1660.899)" fill="none" stroke="#5380f2" stroke-width="2"/>
      <line id="Line_768-2" data-name="Line 768" y1="11.405" x2="19.776" transform="translate(5385.209 1535.494)" fill="none" stroke="#5380f2" stroke-width="2"/>
      <line id="Line_780-2" data-name="Line 780" y1="11.405" x2="19.776" transform="translate(5385.209 1592.494)" fill="none" stroke="#5380f2" stroke-width="2"/>
      <line id="Line_783-2" data-name="Line 783" y1="11.405" x2="19.776" transform="translate(5385.209 1649.494)" fill="none" stroke="#5380f2" stroke-width="2"/>
      <line id="Line_769-2" data-name="Line 769" y1="11.405" x2="19.776" transform="translate(5385.209 1558.263)" fill="none" stroke="#5380f2" stroke-width="2"/>
      <line id="Line_781-2" data-name="Line 781" y1="11.405" x2="19.776" transform="translate(5385.209 1615.263)" fill="none" stroke="#5380f2" stroke-width="2"/>
      <line id="Line_785-2" data-name="Line 785" y1="11.405" x2="19.776" transform="translate(5385.209 1672.263)" fill="none" stroke="#5380f2" stroke-width="2"/>
      <line id="Line_770-2" data-name="Line 770" y2="22.769" transform="translate(5404.985 1535.535)" fill="none" stroke="#5380f2" stroke-width="2"/>
      <line id="Line_782-2" data-name="Line 782" y2="22.769" transform="translate(5404.985 1592.535)" fill="none" stroke="#5380f2" stroke-width="2"/>
      <line id="Line_786-2" data-name="Line 786" y2="22.769" transform="translate(5404.985 1649.535)" fill="none" stroke="#5380f2" stroke-width="2"/>
    </g>
    <g id="Group_307" data-name="Group 307" transform="translate(49 -28)">
      <line id="Line_767-3" data-name="Line 767" y2="22.769" transform="translate(5385.209 1546.899)" fill="none" stroke="#5380f2" stroke-width="2"/>
      <line id="Line_779-3" data-name="Line 779" y2="22.769" transform="translate(5385.209 1603.899)" fill="none" stroke="#5380f2" stroke-width="2"/>
      <line id="Line_784-3" data-name="Line 784" y2="22.769" transform="translate(5385.209 1660.899)" fill="none" stroke="#5380f2" stroke-width="2"/>
      <line id="Line_768-3" data-name="Line 768" y1="11.405" x2="19.776" transform="translate(5385.209 1535.494)" fill="none" stroke="#5380f2" stroke-width="2"/>
      <line id="Line_780-3" data-name="Line 780" y1="11.405" x2="19.776" transform="translate(5385.209 1592.494)" fill="none" stroke="#5380f2" stroke-width="2"/>
      <line id="Line_783-3" data-name="Line 783" y1="11.405" x2="19.776" transform="translate(5385.209 1649.494)" fill="none" stroke="#5380f2" stroke-width="2"/>
      <line id="Line_769-3" data-name="Line 769" y1="11.405" x2="19.776" transform="translate(5385.209 1558.263)" fill="none" stroke="#5380f2" stroke-width="2"/>
      <line id="Line_781-3" data-name="Line 781" y1="11.405" x2="19.776" transform="translate(5385.209 1615.263)" fill="none" stroke="#5380f2" stroke-width="2"/>
      <line id="Line_785-3" data-name="Line 785" y1="11.405" x2="19.776" transform="translate(5385.209 1672.263)" fill="none" stroke="#5380f2" stroke-width="2"/>
      <line id="Line_770-3" data-name="Line 770" y2="22.769" transform="translate(5404.985 1535.535)" fill="none" stroke="#5380f2" stroke-width="2"/>
      <line id="Line_782-3" data-name="Line 782" y2="22.769" transform="translate(5404.985 1592.535)" fill="none" stroke="#5380f2" stroke-width="2"/>
      <line id="Line_786-3" data-name="Line 786" y2="22.769" transform="translate(5404.985 1649.535)" fill="none" stroke="#5380f2" stroke-width="2"/>
    </g>
    <g id="Group_304" data-name="Group 304">
      <line id="Line_771" data-name="Line 771" x1="19.468" y1="11.28" transform="translate(5560.775 1535.681)" fill="none" stroke="#5380f2" stroke-width="2"/>
      <line id="Line_777" data-name="Line 777" x1="19.468" y1="11.28" transform="translate(5560.775 1592.681)" fill="none" stroke="#5380f2" stroke-width="2"/>
      <line id="Line_787" data-name="Line 787" x1="19.468" y1="11.28" transform="translate(5560.775 1649.681)" fill="none" stroke="#5380f2" stroke-width="2"/>
      <line id="Line_772" data-name="Line 772" x1="19.468" y1="11.28" transform="translate(5560.775 1558.201)" fill="none" stroke="#5380f2" stroke-width="2"/>
      <line id="Line_775" data-name="Line 775" x1="19.468" y1="11.28" transform="translate(5560.775 1615.201)" fill="none" stroke="#5380f2" stroke-width="2"/>
      <line id="Line_790" data-name="Line 790" x1="19.468" y1="11.28" transform="translate(5560.775 1672.201)" fill="none" stroke="#5380f2" stroke-width="2"/>
      <line id="Line_773" data-name="Line 773" y2="22.52" transform="translate(5560.775 1535.721)" fill="none" stroke="#5380f2" stroke-width="2"/>
      <line id="Line_778" data-name="Line 778" y2="22.52" transform="translate(5560.775 1592.721)" fill="none" stroke="#5380f2" stroke-width="2"/>
      <line id="Line_788" data-name="Line 788" y2="22.52" transform="translate(5560.775 1649.721)" fill="none" stroke="#5380f2" stroke-width="2"/>
      <line id="Line_774" data-name="Line 774" y2="22.52" transform="translate(5580.243 1546.881)" fill="none" stroke="#5380f2" stroke-width="2"/>
      <line id="Line_776" data-name="Line 776" y2="22.52" transform="translate(5580.243 1603.881)" fill="none" stroke="#5380f2" stroke-width="2"/>
      <line id="Line_789" data-name="Line 789" y2="22.52" transform="translate(5580.243 1660.881)" fill="none" stroke="#5380f2" stroke-width="2"/>
    </g>
    <g id="Group_308" data-name="Group 308" transform="translate(-49 -26)">
      <line id="Line_771-2" data-name="Line 771" x1="19.468" y1="11.28" transform="translate(5560.775 1535.681)" fill="none" stroke="#5380f2" stroke-width="2"/>
      <line id="Line_777-2" data-name="Line 777" x1="19.468" y1="11.28" transform="translate(5560.775 1592.681)" fill="none" stroke="#5380f2" stroke-width="2"/>
      <line id="Line_787-2" data-name="Line 787" x1="19.468" y1="11.28" transform="translate(5560.775 1649.681)" fill="none" stroke="#5380f2" stroke-width="2"/>
      <line id="Line_772-2" data-name="Line 772" x1="19.468" y1="11.28" transform="translate(5560.775 1558.201)" fill="none" stroke="#5380f2" stroke-width="2"/>
      <line id="Line_775-2" data-name="Line 775" x1="19.468" y1="11.28" transform="translate(5560.775 1615.201)" fill="none" stroke="#5380f2" stroke-width="2"/>
      <line id="Line_790-2" data-name="Line 790" x1="19.468" y1="11.28" transform="translate(5560.775 1672.201)" fill="none" stroke="#5380f2" stroke-width="2"/>
      <line id="Line_773-2" data-name="Line 773" y2="22.52" transform="translate(5560.775 1535.721)" fill="none" stroke="#5380f2" stroke-width="2"/>
      <line id="Line_778-2" data-name="Line 778" y2="22.52" transform="translate(5560.775 1592.721)" fill="none" stroke="#5380f2" stroke-width="2"/>
      <line id="Line_788-2" data-name="Line 788" y2="22.52" transform="translate(5560.775 1649.721)" fill="none" stroke="#5380f2" stroke-width="2"/>
      <line id="Line_774-2" data-name="Line 774" y2="22.52" transform="translate(5580.243 1546.881)" fill="none" stroke="#5380f2" stroke-width="2"/>
      <line id="Line_776-2" data-name="Line 776" y2="22.52" transform="translate(5580.243 1603.881)" fill="none" stroke="#5380f2" stroke-width="2"/>
      <line id="Line_789-2" data-name="Line 789" y2="22.52" transform="translate(5580.243 1660.881)" fill="none" stroke="#5380f2" stroke-width="2"/>
    </g>
    <g id="Group_309" data-name="Group 309" transform="translate(49 29)">
      <line id="Line_771-3" data-name="Line 771" x1="19.468" y1="11.28" transform="translate(5560.775 1535.681)" fill="none" stroke="#5380f2" stroke-width="2"/>
      <line id="Line_777-3" data-name="Line 777" x1="19.468" y1="11.28" transform="translate(5560.775 1592.681)" fill="none" stroke="#5380f2" stroke-width="2"/>
      <line id="Line_787-3" data-name="Line 787" x1="19.468" y1="11.28" transform="translate(5560.775 1649.681)" fill="none" stroke="#5380f2" stroke-width="2"/>
      <line id="Line_772-3" data-name="Line 772" x1="19.468" y1="11.28" transform="translate(5560.775 1558.201)" fill="none" stroke="#5380f2" stroke-width="2"/>
      <line id="Line_775-3" data-name="Line 775" x1="19.468" y1="11.28" transform="translate(5560.775 1615.201)" fill="none" stroke="#5380f2" stroke-width="2"/>
      <line id="Line_790-3" data-name="Line 790" x1="19.468" y1="11.28" transform="translate(5560.775 1672.201)" fill="none" stroke="#5380f2" stroke-width="2"/>
      <line id="Line_773-3" data-name="Line 773" y2="22.52" transform="translate(5560.775 1535.721)" fill="none" stroke="#5380f2" stroke-width="2"/>
      <line id="Line_778-3" data-name="Line 778" y2="22.52" transform="translate(5560.775 1592.721)" fill="none" stroke="#5380f2" stroke-width="2"/>
      <line id="Line_788-3" data-name="Line 788" y2="22.52" transform="translate(5560.775 1649.721)" fill="none" stroke="#5380f2" stroke-width="2"/>
      <line id="Line_774-3" data-name="Line 774" y2="22.52" transform="translate(5580.243 1546.881)" fill="none" stroke="#5380f2" stroke-width="2"/>
      <line id="Line_776-3" data-name="Line 776" y2="22.52" transform="translate(5580.243 1603.881)" fill="none" stroke="#5380f2" stroke-width="2"/>
      <line id="Line_789-3" data-name="Line 789" y2="22.52" transform="translate(5580.243 1660.881)" fill="none" stroke="#5380f2" stroke-width="2"/>
    </g>
    <path id="Path_264" data-name="Path 264" d="M410.137,190.277q-5.128-14.695-10.252-29.389c-3.13-8.99-8.776-12.89-15.856-13.4-3.137-.224-6.308.526-9.467.7a9.563,9.563,0,0,1-2.688-.744c.94-2,1.58-3.633,2.407-5.077,5.46-9.522,5.856-19.249,1.087-29.5-5.125-11.019-12.763-17.219-22.047-20.226a25.251,25.251,0,0,0-8.278-1.252c-5.006,0-11.382,3.546-15.541,9.9-4.934,7.538-4.233,20.437-1.388,27.966s6.875,13.874,12.842,17.5c1.912,1.161,3.909,2.071,6.647,3.5-1.331,1.374-1.968,2.526-2.769,2.783-10.515,3.374-17.681,9.293-22.1,22.532-1.462,4.379-4.482,8-7.157,11.459-5.621,7.274-18.371,22.086-18.371,23.106,2.319,5.762,5.758,12.767,7.823,17.9l22.331-27.5a60.135,60.135,0,0,1,2.438,19.017c-.078,5.025-.958,18.739-.958,18.739l6.934.765-.307,6.965c-.961,8.159-2.518,24.553-2.518,24.553l-.362,4.149s12.928,2.325,17.818,3.226h1.531c1.14-9.133,3.431-32.469,3.992-38.233l7.95.417-.488,17.525-.449,9.2,20.215,2.206.5-10.587.9-17.01,8.582.205h0l1.007.024.182-8.179s.718-34.962-4.346-55.428c-.8-3.226-1.491-5.3-.225-6.121s2.183.343,3.292,4.46c1.921,7.139,4.359,13.423,4.359,13.423l1.856,5.775c.606-.246,10.847-3.291,11.472-3.454-.177-.8-.429-1.227-.6-1.9" transform="translate(5126.789 1473.553)" stroke="#fff" stroke-width="2"/>
  </g>
</svg>
