<svg xmlns="http://www.w3.org/2000/svg" width="92.666" height="77.043" viewBox="0 0 92.666 77.043">
  <path id="Union_2" data-name="Union 2" d="M-9411.048-3841.8c-2.393-1.192-4.776-2.386-7.17-3.573q-3.085-1.538-6.164-3.08c-.72-.36-1.426-.732-2.147-1.092v-25.484q2.832,1.412,5.694,2.834,3.586,1.781,7.168,3.568l6.169,3.073c.723.362,1.444.739,2.164,1.094v24.745c0,.257,0,.505,0,.76ZM-9498-3861.951c0-.134-.007-.265,0-.393,0-.706,0-1.409,0-2.115h0v-.021l1.58-.789q2.958-1.473,5.909-2.939,3.59-1.781,7.17-3.568,3.089-1.541,6.177-3.075c.117-.058.23-.117.348-.171v22.949c0,.849,0,1.7,0,2.541-.526.26-1.049.522-1.575.787l-5.909,2.946q-3.587,1.791-7.168,3.573-3.089,1.541-6.172,3.08c-.126.062-.26.129-.369.188Zm63.146,8.078q-3.587-1.787-7.168-3.573-3.089-1.537-6.164-3.08c-.723-.36-1.426-.732-2.147-1.092V-3887.1c1.885.944,3.79,1.893,5.691,2.837q3.587,1.781,7.168,3.568l6.172,3.073c.72.363,1.441.739,2.164,1.094v24.745c0,.255,0,.505-.007.76Zm-39.346-20.147c0-.134,0-.267,0-.393,0-.706,0-1.409,0-2.115h.008v-.021c.526-.262,1.053-.527,1.58-.789q2.953-1.473,5.909-2.939,3.586-1.784,7.17-3.568,3.086-1.541,6.174-3.075c.12-.058.231-.117.351-.171v22.949c0,.849,0,1.7,0,2.541-.527.26-1.049.52-1.576.787l-5.909,2.946q-3.586,1.791-7.17,3.573-3.085,1.541-6.169,3.08c-.126.062-.26.129-.372.188Zm63.148,3.385c-2.393-1.192-4.776-2.386-7.17-3.573l-6.164-3.08c-.72-.36-1.426-.732-2.147-1.092v-25.486q2.832,1.416,5.694,2.837,3.586,1.781,7.168,3.568l6.169,3.073c.723.36,1.444.739,2.164,1.094v24.745c0,.255,0,.505,0,.76ZM-9498-3890.781c0-.133-.007-.267,0-.393,0-.706,0-1.409,0-2.114h0v-.021c.526-.262,1.056-.529,1.58-.789q2.958-1.473,5.909-2.941,3.59-1.781,7.17-3.566,3.089-1.541,6.177-3.075c.117-.058.23-.117.348-.171v22.947c0,.851,0,1.7,0,2.543-.526.26-1.049.52-1.575.787l-5.909,2.946q-3.587,1.792-7.168,3.573l-6.172,3.08c-.126.062-.26.129-.369.188Zm21.193,15.749a.747.747,0,0,0,.07-.033.667.667,0,0,0-.059.038l-.012.005Zm.134-.067-.063.033Zm41.819-7.6q-3.587-1.788-7.168-3.573-3.089-1.541-6.164-3.08c-.723-.36-1.426-.732-2.147-1.094v-25.484c1.885.944,3.787,1.893,5.691,2.837q3.587,1.781,7.168,3.568,3.089,1.537,6.172,3.073c.72.36,1.441.739,2.164,1.094v24.745c0,.255,0,.505-.007.76Zm-39.346-20.147c0-.133,0-.267,0-.393,0-.706,0-1.411,0-2.114h.008v-.024c.526-.26,1.053-.527,1.58-.787q2.953-1.473,5.909-2.941,3.586-1.781,7.17-3.566,3.086-1.541,6.174-3.075c.12-.06.231-.118.351-.171v22.947c0,.849,0,1.7,0,2.541-.527.262-1.049.522-1.576.789l-5.909,2.946q-3.586,1.788-7.17,3.573l-6.169,3.08c-.126.06-.26.126-.372.188Zm21.2,15.747a.878.878,0,0,0,.09-.042.6.6,0,0,0-.078.049l-.012.005Zm.133-.064-.043.022Zm-23.937-16.7a.6.6,0,0,0,.078-.036.628.628,0,0,0-.066.043l-.012.006Zm.134-.067-.056.031Zm23.67-12a.747.747,0,0,0,.088-.042.613.613,0,0,0-.076.049l-.012.005Zm.133-.067-.045.025Z" transform="translate(9497.999 3916.001)" fill="#5380f2"/>
</svg>
