<svg xmlns="http://www.w3.org/2000/svg" width="112.768" height="53.464" viewBox="0 0 112.768 53.464">
  <path id="Union_1" data-name="Union 1" d="M-9420.13-3863.806l-17.3-17.3a26.728,26.728,0,0,1-1.269-8.162,26.555,26.555,0,0,1,2.1-10.4,26.643,26.643,0,0,1,5.73-8.5,26.638,26.638,0,0,1,8.5-5.728,26.548,26.548,0,0,1,10.4-2.1,26.56,26.56,0,0,1,10.405,2.1,26.634,26.634,0,0,1,8.5,5.728,26.637,26.637,0,0,1,5.729,8.5,26.557,26.557,0,0,1,2.1,10.4,26.564,26.564,0,0,1-2.1,10.4,26.6,26.6,0,0,1-5.729,8.5,26.586,26.586,0,0,1-8.5,5.728,26.558,26.558,0,0,1-10.405,2.1A26.774,26.774,0,0,1-9420.13-3863.806Zm-61.542-.832a26.59,26.59,0,0,1-8.5-5.728,26.664,26.664,0,0,1-5.73-8.5,26.614,26.614,0,0,1-2.1-10.4,26.606,26.606,0,0,1,2.1-10.4,26.643,26.643,0,0,1,5.73-8.5,26.638,26.638,0,0,1,8.5-5.728,26.56,26.56,0,0,1,10.405-2.1,26.548,26.548,0,0,1,10.4,2.1,26.657,26.657,0,0,1,8.5,5.728,26.694,26.694,0,0,1,5.73,8.5,26.606,26.606,0,0,1,2.1,10.4,26.684,26.684,0,0,1-1.649,9.268L-9462-3864.187a26.634,26.634,0,0,1-9.27,1.652A26.558,26.558,0,0,1-9481.672-3864.638Z" transform="translate(9498 3915.999)" fill="#5380f2"/>
</svg>
