<svg xmlns="http://www.w3.org/2000/svg" width="68.983" height="69.038" viewBox="0 0 68.983 69.038">
  <g id="noun_Settings_1187809" transform="translate(-15.498 -15.498)">
    <g id="Group_285" data-name="Group 285" transform="translate(15.5 15.5)">
      <g id="Layer_1" data-name="Layer 1">
        <path id="Path_249" data-name="Path 249" d="M68.117,26.724a2.76,2.76,0,0,0-.352-.635,6.272,6.272,0,0,0-5.2-2.408h-.352a3.229,3.229,0,0,1-2.76-1.7.09.09,0,0,1-.1-.1c-.366-.635-.69-1.159-1.063-1.794a.09.09,0,0,1-.069-.083,3.34,3.34,0,0,1-.1-3.312.414.414,0,0,0,.173-.269,6.9,6.9,0,0,0,.524-5.9,1.608,1.608,0,0,0-.352-.635,44.422,44.422,0,0,0-3.7-3.133c-.173-.083-.366-.173-.621-.269a6.5,6.5,0,0,0-5.644,1.525.49.49,0,0,0-.255.172,2.891,2.891,0,0,1-1.939.69,3.271,3.271,0,0,1-1.242-.269,14.228,14.228,0,0,0-2.022-.69,3.25,3.25,0,0,1-2.111-2.5,1.732,1.732,0,0,0-.1-.352A6.341,6.341,0,0,0,37.495.235a1.242,1.242,0,0,0-.614-.166,39.98,39.98,0,0,0-4.754,0,1.794,1.794,0,0,0-.621.172,6.562,6.562,0,0,0-3.353,4.913.311.311,0,0,0-.1.269,3.146,3.146,0,0,1-2.111,2.5c-.607.173-1.318.442-2.022.69a6.5,6.5,0,0,1-1.242.172,3.153,3.153,0,0,1-1.939-.69c-.083-.1-.173-.1-.255-.186a6.451,6.451,0,0,0-5.644-1.525.9.9,0,0,0-.621.269,24.606,24.606,0,0,0-3.705,3.126,2.477,2.477,0,0,0-.352.635,6.658,6.658,0,0,0,.524,5.9,1.842,1.842,0,0,1,.173.269,3.353,3.353,0,0,1-.1,3.312.09.09,0,0,0-.1.1A14.1,14.1,0,0,0,9.66,21.79a.09.09,0,0,0-.1.1,3.05,3.05,0,0,1-2.76,1.7H6.445a6.431,6.431,0,0,0-5.2,2.422,1.608,1.608,0,0,0-.352.635A34.638,34.638,0,0,0,0,31.65a1.863,1.863,0,0,0,.1.69,6.541,6.541,0,0,0,4.043,4.05,2.07,2.07,0,0,1,.352.1,3.043,3.043,0,0,1,2.022,2.5v.1a15.056,15.056,0,0,0,.352,2.07v.1A3.45,3.45,0,0,1,5.8,44.381a.49.49,0,0,0-.255.173,6.624,6.624,0,0,0-2.463,5.106,2.3,2.3,0,0,0,.172.69A38.8,38.8,0,0,0,5.9,54.917a.828.828,0,0,0,.538.538,6.382,6.382,0,0,0,5.52.352.407.407,0,0,0,.352-.1,3.181,3.181,0,0,1,1.063-.173,3.229,3.229,0,0,1,1.132.2,4.057,4.057,0,0,1,1.063.607l1.587,1.38.1.1A3.291,3.291,0,0,1,18.4,60.851a.635.635,0,0,0-.1.352,6.714,6.714,0,0,0,1.242,5.451,1.739,1.739,0,0,0,.621.442,25.833,25.833,0,0,0,5.037,1.87,1.152,1.152,0,0,0,.793,0,6.424,6.424,0,0,0,4.4-3.312,1.842,1.842,0,0,0,.173-.269,2.9,2.9,0,0,1,2.829-1.6H35.6a3.16,3.16,0,0,1,2.829,1.6,1.842,1.842,0,0,1,.173.269,6.41,6.41,0,0,0,4.4,3.312h.352c.1,0,.255,0,.145-.186A47.609,47.609,0,0,0,48.528,66.9a1.628,1.628,0,0,0,.621-.442,6.141,6.141,0,0,0,1.442-4.016,6.576,6.576,0,0,0-.124-1.256,1.118,1.118,0,0,0-.1-.538A3.188,3.188,0,0,1,51.612,57.7a.1.1,0,1,1,.138-.138,12.6,12.6,0,0,0,1.587-1.38h.1a3.1,3.1,0,0,1,2.111-.807,2.9,2.9,0,0,1,.766.1,1.38,1.38,0,0,1,.3.1,2.07,2.07,0,0,1,.352.1,7.279,7.279,0,0,0,1.159.324,6.306,6.306,0,0,0,1.228.124,6.445,6.445,0,0,0,3.181-.807l.538-.538A25.668,25.668,0,0,0,65.709,50.2a1.594,1.594,0,0,0,.172-.69A6.776,6.776,0,0,0,63.418,44.4c-.083-.083-.173-.172-.255-.269a3.036,3.036,0,0,1-1.063-2.76v-.1a15.422,15.422,0,0,0,.352-2.07v-.076A2.906,2.906,0,0,1,64.48,36.57a.407.407,0,0,0,.38-.124,6.472,6.472,0,0,0,4.023-4.016,1.863,1.863,0,0,0,.1-.69A31.092,31.092,0,0,0,68.117,26.724ZM34.5,49.066a14.076,14.076,0,1,1,9.982-4.179A14.166,14.166,0,0,1,34.5,49.066Z" fill="#5380f2"/>
      </g>
    </g>
  </g>
</svg>
