<svg xmlns="http://www.w3.org/2000/svg" width="39.094" height="67.22" viewBox="0 0 39.094 67.22">
  <g id="noun_Bluetooth_2136104" transform="translate(-23.705 -18.95)">
    <g id="Group_313" data-name="Group 313" transform="translate(23.705 18.95)">
      <g id="Layer_1" data-name="Layer 1" transform="translate(0 0)">
        <path id="Path_268" data-name="Path 268" d="M34.631,37.06,46.271,25.4a3.538,3.538,0,0,0,0-4.988L30.35,4.494a3.525,3.525,0,0,0-6.032,2.494v23.3L14.43,20.415A3.538,3.538,0,0,0,9.441,25.4L21.081,37.06,9.441,48.717a3.538,3.538,0,1,0,4.988,4.988l9.888-9.871v23.3A3.538,3.538,0,0,0,26.494,70.4a3.662,3.662,0,0,0,1.362.265,3.538,3.538,0,0,0,2.494-1.044l15.92-15.92a3.538,3.538,0,0,0,0-4.988ZM31.394,15.532l7.376,7.376-7.376,7.376Zm0,43.056V43.835l7.376,7.376Z" transform="translate(-8.205 -3.45)" fill="#5380f2"/>
      </g>
    </g>
  </g>
</svg>
