<svg id="noun_Audio_1559584" xmlns="http://www.w3.org/2000/svg" width="80.888" height="57.818" viewBox="0 0 80.888 57.818">
  <g id="Group_260" data-name="Group 260" transform="translate(0 0)">
    <g id="Layer_1" data-name="Layer 1" transform="translate(0)">
      <path id="Path_237" data-name="Path 237" d="M36.826,5.218a2.891,2.891,0,0,0-2.891,0L14.376,16.391H3.581A2.891,2.891,0,0,0,.69,19.282V36.628a2.891,2.891,0,0,0,2.891,2.891H14.376L33.947,50.7a2.891,2.891,0,0,0,4.325-2.509V7.719A2.891,2.891,0,0,0,36.826,5.218Z" transform="translate(-0.69 0.954)" fill="#5380f2"/>
      <path id="Path_238" data-name="Path 238" d="M12.121,8.228a2.891,2.891,0,0,0-.442,4.065,11.616,11.616,0,0,1,0,13.72,2.891,2.891,0,1,0,4.5,3.625,17.27,17.27,0,0,0,0-20.971,2.891,2.891,0,0,0-4.062-.439Z" transform="translate(32.324 9.757)" fill="#5380f2"/>
      <path id="Path_239" data-name="Path 239" d="M14.881,6.158a2.891,2.891,0,0,0-.442,4.065,25.94,25.94,0,0,1,0,31.066,2.891,2.891,0,1,0,4.5,3.625,31.994,31.994,0,0,0,0-38.316A2.891,2.891,0,0,0,14.881,6.158Z" transform="translate(41.127 3.154)" fill="#5380f2"/>
      <path id="Path_240" data-name="Path 240" d="M21.7,4.528a2.891,2.891,0,1,0-4.5,3.625,40.424,40.424,0,0,1,0,48.411,2.891,2.891,0,1,0,4.5,3.625,46.477,46.477,0,0,0,0-55.662Z" transform="translate(49.931 -3.45)" fill="#5380f2"/>
    </g>
  </g>
</svg>
