<svg xmlns="http://www.w3.org/2000/svg" width="73.483" height="73.483" viewBox="0 0 73.483 73.483">
  <g id="Group_339" data-name="Group 339" transform="translate(-731.252 -551)">
    <ellipse id="Ellipse_21" data-name="Ellipse 21" cx="24.048" cy="24.047" rx="24.048" ry="24.047" transform="translate(743.946 563.694)" fill="#5380f2"/>
    <g id="Path_269" data-name="Path 269" transform="translate(731.252 551)" fill="none">
      <path d="M36.742,0A36.741,36.741,0,1,1,0,36.741,36.742,36.742,0,0,1,36.742,0Z" stroke="none"/>
      <path d="M 36.74153137207031 4.999992370605469 C 32.45424652099609 4.999992370605469 28.29785919189453 5.838531494140625 24.38783264160156 7.492347717285156 C 20.60866165161133 9.090789794921875 17.21357345581055 11.38016510009766 14.296875 14.2968635559082 C 11.38017272949219 17.21356201171875 9.090805053710938 20.60863494873047 7.492362976074219 24.38779067993164 C 5.838546752929688 28.29782104492188 5 32.45420837402344 5 36.74147796630859 C 5 41.02874755859375 5.838546752929688 45.18513488769531 7.492362976074219 49.09514999389648 C 9.090805053710938 52.87430572509766 11.38017272949219 56.26939392089844 14.296875 59.18609237670898 C 17.21357345581055 62.10277938842773 20.60866165161133 64.39215087890625 24.38783264160156 65.99059295654297 C 28.29785919189453 67.6444091796875 32.45424652099609 68.48294830322266 36.74153137207031 68.48294830322266 C 41.02881622314453 68.48294830322266 45.18520355224609 67.6444091796875 49.09523010253906 65.99059295654297 C 52.87440490722656 64.39215087890625 56.26948928833008 62.10277938842773 59.18618774414063 59.18609237670898 C 62.10289001464844 56.26939392089844 64.39225769042969 52.87430572509766 65.99069976806641 49.09514999389648 C 67.64451599121094 45.18513488769531 68.48306274414063 41.02874755859375 68.48306274414063 36.74147796630859 C 68.48306274414063 32.45420837402344 67.64451599121094 28.29782104492188 65.99069976806641 24.38779067993164 C 64.39225769042969 20.60863494873047 62.10289001464844 17.21356201171875 59.18618774414063 14.2968635559082 C 56.26948928833008 11.38016510009766 52.87440490722656 9.090789794921875 49.09523010253906 7.492347717285156 C 45.18520355224609 5.838531494140625 41.02881622314453 4.999992370605469 36.74153137207031 4.999992370605469 M 36.74153137207031 -7.62939453125e-06 C 57.03331756591797 -7.62939453125e-06 73.48306274414063 16.44972229003906 73.48306274414063 36.74147796630859 C 73.48306274414063 57.03323364257813 57.03331756591797 73.48294830322266 36.74153137207031 73.48294830322266 C 16.44974517822266 73.48294830322266 0 57.03323364257813 0 36.74147796630859 C 0 16.44972229003906 16.44974517822266 -7.62939453125e-06 36.74153137207031 -7.62939453125e-06 Z" stroke="none" fill="#5380f2"/>
    </g>
  </g>
</svg>
