<svg xmlns="http://www.w3.org/2000/svg" width="81.034" height="72.931" viewBox="0 0 81.034 72.931">
  <g id="noun_Home_1477737" transform="translate(-32.75 -34.475)">
    <g id="Group_284" data-name="Group 284" transform="translate(32.75 34.475)">
      <g id="Layer_1" data-name="Layer 1">
        <path id="Path_248" data-name="Path 248" d="M96.664,52.329a3.971,3.971,0,0,1,1.621,3.112,4.052,4.052,0,0,1-4.052,4.052h-8.1V87.854a4.052,4.052,0,0,1-4.052,4.052H69.922a4.052,4.052,0,0,1-4.052-4.052V71.647H49.664V87.854a4.052,4.052,0,0,1-4.052,4.052H33.457a4.052,4.052,0,0,1-4.052-4.052V59.492H21.3A4.052,4.052,0,0,1,17.25,55.44a4.214,4.214,0,0,1,1.442-3.112C32.711,40.611,57.767,18.975,57.767,18.975S82.823,40.611,96.664,52.329Z" transform="translate(-17.25 -18.975)" fill="#5380f2"/>
      </g>
    </g>
  </g>
</svg>
