# Blender v3.6.9 OBJ File: 'v14_AlignTipWithCapsule.blend'
# www.blender.org
mtllib roy_k2v3_right.mtl
v 0.011184 0.020757 0.046169
v 0.011392 0.021234 0.046721
v 0.011514 0.020457 0.045668
v 0.010582 0.020550 0.046254
v 0.010801 0.021253 0.047123
v 0.010902 0.019958 0.045437
v 0.010123 0.020393 0.046370
v 0.010492 0.019634 0.045341
v 0.009750 0.020252 0.046479
v 0.010418 0.021250 0.047418
v 0.010099 0.021238 0.047685
v 0.011471 0.022046 0.048262
v 0.011290 0.022136 0.048622
v 0.011691 0.021927 0.047833
v 0.013000 0.022449 0.048493
v 0.012984 0.022256 0.048003
v 0.014452 0.022333 0.048035
v 0.013010 0.022591 0.048883
v 0.014662 0.022460 0.048364
v 0.013007 0.022712 0.049253
v 0.011132 0.022209 0.048957
v 0.013027 0.022728 0.049632
v 0.014862 0.022588 0.048706
v 0.015033 0.022603 0.049049
v 0.016144 0.021913 0.047538
v 0.015798 0.021869 0.047328
v 0.016457 0.021866 0.047757
v 0.016594 0.020861 0.046057
v 0.016199 0.020943 0.046014
v 0.016952 0.020714 0.046144
v 0.016089 0.019683 0.044648
v 0.015732 0.019875 0.044743
v 0.014768 0.018707 0.043729
v 0.016405 0.019428 0.044624
v 0.014945 0.018361 0.043633
v 0.016620 0.019076 0.044788
v 0.015081 0.017952 0.043759
v 0.017198 0.020426 0.046366
v 0.016799 0.018698 0.045244
v 0.016841 0.018071 0.045559
v 0.015182 0.017480 0.044115
v 0.017312 0.019970 0.046742
v 0.016791 0.021187 0.048418
v 0.017429 0.019438 0.047146
v 0.016897 0.020681 0.048846
v 0.017562 0.018848 0.047617
v 0.017709 0.018187 0.048145
v 0.016963 0.017470 0.046016
v 0.017026 0.020103 0.049324
v 0.015517 0.020890 0.050667
v 0.017172 0.019450 0.049857
v 0.015665 0.020234 0.051208
v 0.017370 0.018565 0.050579
v 0.017910 0.017301 0.048854
v 0.015861 0.019365 0.051928
v 0.017623 0.017426 0.051507
v 0.018166 0.016152 0.049779
v 0.017911 0.016161 0.052539
v 0.016111 0.018228 0.052874
v 0.014038 0.018365 0.053542
v 0.016377 0.016977 0.053925
v 0.014295 0.017118 0.054596
v 0.012174 0.016556 0.054399
v 0.011944 0.017802 0.053344
v 0.010588 0.015443 0.053386
v 0.009927 0.014071 0.051829
v 0.010366 0.016686 0.052324
v 0.010152 0.017803 0.051350
v 0.009724 0.015297 0.050731
v 0.010257 0.013959 0.048927
v 0.009539 0.016415 0.049733
v 0.009397 0.017284 0.048980
v 0.010082 0.015125 0.047979
v 0.009945 0.016023 0.047265
v 0.011610 0.014328 0.046614
v 0.011451 0.015242 0.045923
v 0.013677 0.014207 0.045972
v 0.011812 0.013139 0.047528
v 0.012014 0.011832 0.048535
v 0.013911 0.013019 0.046874
v 0.016003 0.013601 0.047105
v 0.014151 0.011704 0.047865
v 0.016291 0.012302 0.048104
v 0.017859 0.013454 0.049170
v 0.017573 0.014747 0.048162
v 0.018459 0.014880 0.050809
v 0.017313 0.015912 0.047245
v 0.017113 0.016799 0.046540
v 0.015756 0.014779 0.046195
v 0.015557 0.015681 0.045497
v 0.013492 0.015120 0.045279
v 0.015414 0.016350 0.044980
v 0.015284 0.016946 0.044519
v 0.013358 0.015794 0.044768
v 0.013236 0.016394 0.044314
v 0.011327 0.015924 0.045407
v 0.009837 0.016703 0.046732
v 0.011212 0.016534 0.044953
v 0.009733 0.017315 0.046276
v 0.011103 0.017075 0.044554
v 0.011017 0.017546 0.044206
v 0.009580 0.017925 0.045956
v 0.013134 0.016924 0.043913
v 0.013050 0.017396 0.043558
v 0.012994 0.017819 0.043415
v 0.012971 0.018216 0.043511
v 0.011024 0.017969 0.044028
v 0.011129 0.018345 0.044065
v 0.009611 0.018744 0.045282
v 0.009559 0.018343 0.045508
v 0.009825 0.019073 0.045228
v 0.009114 0.019878 0.046807
v 0.009041 0.019506 0.047083
v 0.009382 0.020107 0.046608
v 0.009592 0.021111 0.048264
v 0.009534 0.020820 0.048618
v 0.009822 0.021232 0.047952
v 0.011009 0.022175 0.049337
v 0.011001 0.021947 0.049716
v 0.013089 0.022523 0.050017
v 0.011116 0.021496 0.050123
v 0.009614 0.020366 0.049012
v 0.013209 0.022086 0.050402
v 0.011243 0.020998 0.050566
v 0.009729 0.019876 0.049488
v 0.011382 0.020436 0.051065
v 0.013316 0.021583 0.050828
v 0.015402 0.021462 0.050186
v 0.013451 0.021010 0.051312
v 0.013604 0.020359 0.051861
v 0.011533 0.019796 0.051629
v 0.013795 0.019501 0.052585
v 0.011716 0.018930 0.052377
v 0.009983 0.018678 0.050582
v 0.009851 0.019319 0.050002
v 0.009291 0.017947 0.048409
v 0.009197 0.018520 0.047908
v 0.009116 0.018973 0.047374
v 0.015417 0.021931 0.049696
v 0.015187 0.022406 0.049400
v 0.016673 0.021646 0.048049
v 0.010154 0.019359 0.045278
v 0.011307 0.018705 0.044249
v 0.011516 0.019073 0.044451
v 0.012979 0.018567 0.043742
v 0.012975 0.018946 0.044004
v 0.014566 0.019010 0.043932
v 0.014336 0.019322 0.044163
v 0.015361 0.020064 0.044849
v 0.014049 0.019697 0.044456
v 0.014837 0.020324 0.045026
v 0.013726 0.020151 0.044861
v 0.012982 0.019400 0.044330
v 0.013020 0.020083 0.044880
v 0.011776 0.019517 0.044709
v 0.012158 0.020161 0.045145
v 0.012600 0.020922 0.045823
v 0.013392 0.020788 0.045524
v 0.011920 0.021060 0.046223
v 0.012889 0.021489 0.046529
v 0.013665 0.021360 0.046223
v 0.012268 0.021476 0.046696
v 0.012953 0.021967 0.047364
v 0.011995 0.021737 0.047270
v 0.013846 0.021858 0.047021
v 0.014411 0.021606 0.046591
v 0.014204 0.022160 0.047630
v 0.014975 0.021736 0.046878
v 0.015246 0.021090 0.045946
v 0.015436 0.021815 0.047124
v 0.015791 0.021015 0.045977
v 0.014458 0.021177 0.045963
v 0.014185 0.020614 0.045292
v 0.010434 0.012689 0.049982
vt 0.210898 0.556060
vt 0.212139 0.565747
vt 0.207607 0.561621
vt 0.204120 0.556323
vt 0.209328 0.550569
vt 0.215813 0.547846
vt 0.216315 0.556909
vt 0.220495 0.557928
vt 0.220185 0.546434
vt 0.223982 0.558807
vt 0.215148 0.568652
vt 0.217716 0.571220
vt 0.203826 0.576168
vt 0.202634 0.572028
vt 0.189927 0.576552
vt 0.204822 0.579637
vt 0.189083 0.580099
vt 0.191022 0.572098
vt 0.178468 0.569746
vt 0.181467 0.566518
vt 0.175951 0.572332
vt 0.188404 0.583487
vt 0.205724 0.582865
vt 0.173465 0.575075
vt 0.206659 0.586380
vt 0.171146 0.577672
vt 0.165294 0.560734
vt 0.161863 0.561528
vt 0.168856 0.545178
vt 0.168778 0.559745
vt 0.165395 0.544127
vt 0.176516 0.532114
vt 0.161960 0.543026
vt 0.173877 0.529531
vt 0.189107 0.524731
vt 0.171319 0.526862
vt 0.188251 0.521143
vt 0.269818 0.586645
vt 0.271678 0.593351
vt 0.270248 0.593468
vt 0.271074 0.579739
vt 0.269590 0.579729
vt 0.267610 0.579768
vt 0.267895 0.587217
vt 0.265660 0.586853
vt 0.266143 0.593845
vt 0.270938 0.600278
vt 0.268319 0.593689
vt 0.269033 0.600495
vt 0.266897 0.600819
vt 0.263672 0.594077
vt 0.260360 0.587129
vt 0.263184 0.586958
vt 0.264447 0.601153
vt 0.260880 0.594342
vt 0.262688 0.608598
vt 0.265508 0.608173
vt 0.267947 0.607736
vt 0.257099 0.594697
vt 0.261669 0.601504
vt 0.257870 0.601974
vt 0.258916 0.609154
vt 0.252125 0.595182
vt 0.253929 0.609879
vt 0.252928 0.602576
vt 0.246536 0.595749
vt 0.248394 0.610705
vt 0.255113 0.617167
vt 0.260155 0.616357
vt 0.249571 0.618054
vt 0.248500 0.534498
vt 0.255159 0.528060
vt 0.254015 0.535327
vt 0.247505 0.541849
vt 0.253034 0.542635
vt 0.246684 0.549217
vt 0.252247 0.550048
vt 0.259009 0.536154
vt 0.258006 0.543406
vt 0.257266 0.550781
vt 0.246010 0.557251
vt 0.251626 0.557822
vt 0.256698 0.558258
vt 0.261875 0.544024
vt 0.261091 0.551286
vt 0.260533 0.558547
vt 0.256343 0.565606
vt 0.260200 0.565720
vt 0.251246 0.565419
vt 0.260060 0.572835
vt 0.256197 0.572861
vt 0.251116 0.572880
vt 0.245589 0.565145
vt 0.245431 0.572851
vt 0.256265 0.580101
vt 0.251203 0.580275
vt 0.251544 0.587731
vt 0.245548 0.580520
vt 0.245916 0.588097
vt 0.256568 0.587394
vt 0.260101 0.579954
vt 0.262920 0.579863
vt 0.265414 0.579784
vt 0.262890 0.572827
vt 0.265395 0.572816
vt 0.263059 0.565790
vt 0.265589 0.565828
vt 0.263411 0.558738
vt 0.265941 0.558837
vt 0.267596 0.572826
vt 0.267820 0.565840
vt 0.270184 0.559007
vt 0.269789 0.565873
vt 0.269543 0.572858
vt 0.271071 0.572888
vt 0.187470 0.517591
vt 0.204787 0.521110
vt 0.221882 0.527024
vt 0.219459 0.529632
vt 0.230986 0.543068
vt 0.227558 0.544172
vt 0.271319 0.565919
vt 0.270677 0.552478
vt 0.271717 0.559078
vt 0.231065 0.560832
vt 0.227498 0.559803
vt 0.272900 0.546055
vt 0.272205 0.552570
vt 0.219966 0.573781
vt 0.271397 0.545786
vt 0.273719 0.539186
vt 0.222509 0.576458
vt 0.272281 0.538874
vt 0.274963 0.532169
vt 0.270314 0.538414
vt 0.273511 0.531713
vt 0.269410 0.545483
vt 0.267203 0.545002
vt 0.268136 0.537925
vt 0.271564 0.531216
vt 0.264725 0.544527
vt 0.265660 0.537395
vt 0.269352 0.530775
vt 0.271556 0.614405
vt 0.269359 0.614835
vt 0.266835 0.615266
vt 0.262830 0.536827
vt 0.266833 0.530245
vt 0.263955 0.615738
vt 0.263963 0.529664
vt 0.260178 0.528948
vt 0.263980 0.551656
vt 0.266480 0.551996
vt 0.268231 0.558536
vt 0.268696 0.552625
vt 0.269990 0.606915
vt 0.271963 0.607062
vt 0.273567 0.614056
vt 0.272349 0.600089
vt 0.273341 0.606826
vt 0.274963 0.613600
vt 0.223848 0.545313
vt 0.216781 0.532496
vt 0.213876 0.535380
vt 0.202488 0.528515
vt 0.203626 0.524644
vt 0.190141 0.528555
vt 0.179238 0.534724
vt 0.201044 0.533146
vt 0.191424 0.533200
vt 0.182978 0.538496
vt 0.192716 0.538974
vt 0.198639 0.540289
vt 0.210345 0.538893
vt 0.205249 0.544284
vt 0.199275 0.551577
vt 0.189261 0.554123
vt 0.193422 0.547281
vt 0.199924 0.560765
vt 0.194997 0.558407
vt 0.185834 0.561544
vt 0.192589 0.566255
vt 0.201055 0.566516
vt 0.182166 0.556228
vt 0.176799 0.557664
vt 0.172341 0.558799
vt 0.176942 0.547589
vt 0.183389 0.549820
vt 0.172353 0.546218
vt 0.187534 0.543182
vt 0.187628 0.586817
vt 0.271241 0.586570
vt 0.247374 0.603236
vt 0.249641 0.527122
vt 0.205812 0.517591
vn -0.3107 0.7442 -0.5913
vn -0.3418 0.8098 -0.4768
vn -0.2891 0.8063 -0.5161
vn -0.2289 0.7767 -0.5868
vn -0.2690 0.7032 -0.6582
vn -0.3253 0.6547 -0.6823
vn -0.3673 0.7247 -0.5830
vn -0.4144 0.7093 -0.5702
vn -0.3637 0.6272 -0.6888
vn -0.4520 0.6955 -0.5585
vn -0.3803 0.8099 -0.4466
vn -0.4094 0.8064 -0.4267
vn -0.2644 0.8920 -0.3665
vn -0.2471 0.8838 -0.3972
vn -0.1136 0.9310 -0.3468
vn -0.2790 0.8972 -0.3423
vn -0.1131 0.9397 -0.3227
vn -0.1140 0.9179 -0.3802
vn 0.0254 0.9216 -0.3872
vn 0.0069 0.9087 -0.4174
vn 0.0379 0.9270 -0.3733
vn -0.1120 0.9817 -0.1540
vn -0.3613 0.9164 -0.1722
vn 0.1217 0.9641 -0.2358
vn -0.4935 0.8416 0.2194
vn 0.3015 0.9456 0.1223
vn 0.2790 0.8795 -0.3856
vn 0.5734 0.8055 -0.1494
vn 0.2102 0.7724 -0.5993
vn 0.1544 0.8732 -0.4623
vn 0.3418 0.7422 -0.5765
vn 0.1481 0.6630 -0.7339
vn 0.6723 0.5781 -0.4624
vn 0.2759 0.5871 -0.7611
vn 0.0204 0.5814 -0.8134
vn 0.5780 0.3116 -0.7542
vn 0.1122 0.4469 -0.8875
vn 0.7905 -0.0569 -0.6098
vn 0.9258 0.2909 -0.2412
vn 0.3009 0.0743 -0.9508
vn 0.4375 -0.3210 -0.8400
vn 0.4754 -0.4668 -0.7457
vn 0.8676 -0.1671 -0.4683
vn 0.8370 -0.2079 -0.5061
vn 0.9853 0.1263 -0.1146
vn 0.8003 0.5812 0.1473
vn 0.9835 0.1417 -0.1127
vn 0.8614 0.4272 0.2748
vn 0.8586 0.4237 0.2885
vn 0.9849 0.1267 -0.1177
vn 0.8438 -0.2023 -0.4970
vn 0.8429 -0.2041 -0.4979
vn 0.8564 0.4280 0.2887
vn 0.9849 0.1269 -0.1179
vn 0.4994 0.6164 0.6088
vn 0.4955 0.6165 0.6119
vn 0.4846 0.6210 0.6160
vn 0.9849 0.1272 -0.1178
vn 0.8571 0.4272 0.2879
vn 0.8578 0.4263 0.2872
vn 0.5021 0.6158 0.6072
vn 0.9848 0.1284 -0.1173
vn 0.5046 0.6153 0.6056
vn 0.8581 0.4265 0.2859
vn 0.9844 0.1313 -0.1173
vn 0.5048 0.6158 0.6050
vn 0.0199 0.6473 0.7619
vn 0.0154 0.6469 0.7624
vn 0.0226 0.6479 0.7614
vn -0.4688 0.5179 0.7155
vn -0.4718 0.5168 0.7144
vn -0.8368 0.2605 0.4816
vn -0.8418 0.2557 0.4754
vn -0.9910 -0.0645 0.1174
vn -0.9922 -0.0748 0.0997
vn -0.4788 0.5138 0.7118
vn -0.8483 0.2479 0.4680
vn -0.9924 -0.0848 0.0888
vn -0.8754 -0.3782 -0.3010
vn -0.8681 -0.3841 -0.3145
vn -0.8641 -0.3887 -0.3196
vn -0.8529 0.2417 0.4627
vn -0.9925 -0.0901 0.0821
vn -0.8624 -0.3897 -0.3232
vn -0.5038 -0.5777 -0.6423
vn -0.5049 -0.5763 -0.6426
vn -0.5049 -0.5765 -0.6425
vn -0.0181 -0.6061 -0.7952
vn -0.0146 -0.6067 -0.7948
vn -0.0124 -0.6053 -0.7959
vn -0.5107 -0.5749 -0.6393
vn -0.0134 -0.6043 -0.7966
vn 0.4789 -0.4702 -0.7414
vn 0.4796 -0.4682 -0.7421
vn 0.8460 -0.1990 -0.4946
vn 0.4828 -0.4649 -0.7421
vn 0.8469 -0.1973 -0.4938
vn 0.8454 -0.2015 -0.4946
vn 0.4753 -0.4707 -0.7433
vn 0.4746 -0.4715 -0.7432
vn 0.4717 -0.4723 -0.7446
vn -0.0202 -0.6064 -0.7949
vn -0.0235 -0.6060 -0.7951
vn -0.5061 -0.5758 -0.6421
vn -0.5088 -0.5741 -0.6415
vn -0.8611 -0.3912 -0.3248
vn -0.8577 -0.3932 -0.3312
vn -0.0257 -0.6047 -0.7960
vn -0.5148 -0.5707 -0.6397
vn -0.8659 -0.2838 -0.4120
vn -0.5270 -0.4530 -0.7191
vn -0.0477 -0.4749 -0.8787
vn -0.0957 -0.0778 -0.9924
vn -0.1242 0.3687 -0.9212
vn -0.4992 -0.0826 -0.8625
vn -0.3735 0.3581 -0.8557
vn -0.8032 0.0661 -0.5920
vn -0.5664 0.4492 -0.6910
vn -0.9999 0.0125 -0.0082
vn -0.9136 0.3186 -0.2525
vn -0.6363 0.6018 -0.4826
vn -0.7981 0.6016 0.0347
vn -0.5561 0.7777 -0.2931
vn -0.8785 0.3378 0.3378
vn -0.5289 0.6232 0.5761
vn -0.0864 0.9630 0.2553
vn -0.5085 0.5007 0.7005
vn -0.0407 0.7757 0.6298
vn -0.8730 0.2212 0.4348
vn -0.8631 0.2297 0.4498
vn -0.5006 0.5020 0.7053
vn -0.0033 0.6524 0.7578
vn -0.8579 0.2349 0.4570
vn -0.4932 0.5068 0.7070
vn -0.0035 0.6463 0.7630
vn 0.0033 0.6461 0.7632
vn -0.4850 0.5111 0.7096
vn 0.0097 0.6465 0.7629
vn -0.9925 -0.0947 0.0776
vn -0.9925 -0.0934 0.0786
vn -0.8811 -0.3695 -0.2952
vn -0.9917 -0.1216 0.0417
vn 0.5351 0.6102 0.5843
vn 0.4375 0.7562 0.4866
vn -0.3967 0.6051 -0.6903
vn -0.2764 0.5573 -0.7830
vn -0.2581 0.5808 -0.7721
vn -0.1304 0.5697 -0.8114
vn -0.1271 0.5532 -0.8233
vn -0.0005 0.6031 -0.7976
vn 0.1152 0.6764 -0.7274
vn -0.1310 0.5995 -0.7896
vn -0.0210 0.6277 -0.7782
vn 0.0698 0.6978 -0.7129
vn -0.0502 0.6697 -0.7409
vn -0.1276 0.6613 -0.7392
vn -0.2392 0.6102 -0.7553
vn -0.2051 0.6694 -0.7141
vn -0.1594 0.7566 -0.6342
vn -0.0483 0.8169 -0.5747
vn -0.0814 0.7444 -0.6628
vn -0.1910 0.8329 -0.5195
vn -0.1197 0.8339 -0.5388
vn -0.0268 0.8798 -0.4745
vn -0.1158 0.8912 -0.4386
vn -0.2204 0.8666 -0.4476
vn 0.0352 0.8504 -0.5249
vn 0.0892 0.8644 -0.4948
vn 0.1244 0.8703 -0.4765
vn 0.1145 0.7869 -0.6064
vn 0.0367 0.7932 -0.6079
vn 0.1687 0.7800 -0.6026
vn 0.0056 0.7291 -0.6844
vn 0.8582 0.4273 0.2843
s 1
f 1/1/1 5/2/2 2/3/3
f 1/1/1 159/4/4 3/5/5
f 1/1/1 6/6/6 4/7/7
f 7/8/8 5/2/2 4/7/7
f 8/9/9 4/7/7 6/6/6
f 8/9/9 9/10/10 7/8/8
f 9/10/10 10/11/11 7/8/8
f 11/12/12 12/13/13 10/11/11
f 10/11/11 14/14/14 5/2/2
f 15/15/15 13/16/16 18/17/17
f 14/14/14 15/15/15 16/18/18
f 16/18/18 17/19/19 167/20/20
f 15/15/15 19/21/21 17/19/19
f 20/22/22 13/16/16 21/23/23
f 23/24/24 18/17/17 20/22/22
f 118/25/25 20/22/22 21/23/23
f 20/22/22 24/26/26 23/24/24
f 25/27/27 19/21/21 23/24/24
f 23/24/24 27/28/28 25/27/27
f 25/27/27 29/29/29 26/30/30
f 27/28/28 28/31/31 25/27/27
f 28/31/31 32/32/32 29/29/29
f 30/33/33 31/34/34 28/31/31
f 31/34/34 147/35/35 32/32/32
f 34/36/36 33/37/37 31/34/34
f 36/38/38 30/39/33 38/40/39
f 35/41/40 36/38/38 37/42/41
f 41/43/42 36/38/38 39/44/43
f 38/40/39 39/44/43 36/38/38
f 40/45/44 41/43/42 39/44/43
f 39/44/43 44/46/45 40/45/44
f 141/47/46 42/48/47 38/40/39
f 44/46/45 43/49/48 45/50/49
f 46/51/50 40/45/44 44/46/45
f 45/50/49 46/51/50 44/46/45
f 46/51/50 88/52/51 48/53/52
f 49/54/53 47/55/54 46/51/50
f 52/56/55 49/54/53 50/57/56
f 128/58/57 49/54/53 45/50/49
f 54/59/58 51/60/59 53/61/60
f 55/62/61 51/60/59 52/56/55
f 53/61/60 57/63/62 54/59/58
f 53/61/60 59/64/63 56/65/64
f 56/65/64 86/66/65 57/63/62
f 61/67/66 56/65/64 59/64/63
f 60/68/67 55/62/61 132/69/68
f 62/70/69 59/64/63 60/68/67
f 63/71/70 60/72/67 64/73/71
f 65/74/72 64/73/71 67/75/73
f 66/76/74 67/75/73 69/77/75
f 67/75/73 133/78/76 68/79/77
f 69/77/75 68/79/77 71/80/78
f 174/81/79 69/77/75 70/82/80
f 70/82/80 71/80/78 73/83/81
f 71/80/78 134/84/82 72/85/83
f 73/83/81 72/85/83 74/86/84
f 75/87/85 74/86/84 76/88/86
f 78/89/87 73/83/81 75/87/85
f 91/90/88 75/87/85 76/88/86
f 78/89/87 77/91/89 80/92/90
f 79/93/91 70/82/80 78/89/87
f 82/94/92 78/89/87 80/92/90
f 80/92/90 89/95/93 81/96/94
f 81/96/94 82/94/92 80/92/90
f 85/97/95 83/98/96 81/96/94
f 57/63/62 84/99/97 85/97/95
f 81/96/94 87/100/98 85/97/95
f 85/97/95 54/59/58 57/63/62
f 47/55/54 87/100/98 88/52/51
f 88/52/51 89/95/93 90/101/99
f 90/101/99 77/91/89 91/90/88
f 90/101/99 48/53/52 88/52/51
f 91/90/88 92/102/100 90/101/99
f 40/45/44 92/102/100 93/103/101
f 93/103/101 94/104/102 95/105/103
f 95/105/103 96/106/104 98/107/105
f 76/88/86 94/104/102 91/90/88
f 74/86/84 96/106/104 76/88/86
f 98/107/105 97/108/106 99/109/107
f 98/107/105 103/110/108 95/105/103
f 99/109/107 100/111/109 98/107/105
f 100/111/109 110/112/110 101/113/111
f 104/114/112 100/111/109 101/113/111
f 104/114/112 41/43/42 103/110/108
f 93/103/101 103/110/108 41/43/42
f 37/42/41 105/115/113 35/41/40
f 101/113/111 105/115/113 104/114/112
f 35/116/40 106/117/114 33/37/37
f 106/117/114 107/118/115 108/119/116
f 108/119/116 109/120/117 111/121/118
f 110/112/110 107/122/115 101/113/111
f 113/123/119 109/124/117 110/112/110
f 111/121/118 112/125/120 114/126/121
f 113/123/119 115/127/122 112/128/120
f 112/125/120 117/129/123 114/126/121
f 116/130/124 118/131/25 115/127/122
f 115/132/122 21/23/23 117/129/123
f 119/133/125 22/134/126 118/131/25
f 121/135/127 120/136/128 119/133/125
f 122/137/129 119/133/125 116/130/124
f 125/138/130 121/135/127 122/137/129
f 124/139/131 123/140/132 121/135/127
f 135/141/133 124/139/131 125/138/130
f 126/142/134 127/143/135 124/139/131
f 128/58/57 123/144/132 127/145/135
f 129/146/136 128/58/57 127/145/135
f 131/147/137 129/148/136 126/142/134
f 130/149/138 50/57/56 129/146/136
f 133/78/76 130/150/138 131/147/137
f 132/69/68 52/56/55 130/149/138
f 64/73/71 132/151/68 133/78/76
f 68/79/77 131/147/137 134/84/82
f 134/84/82 126/142/134 135/141/133
f 72/85/83 135/141/133 136/152/139
f 136/152/139 125/138/130 137/153/140
f 74/86/84 136/152/139 97/108/106
f 97/108/106 137/153/140 99/109/107
f 137/153/140 102/154/141 99/109/107
f 137/153/140 122/137/129 138/155/142
f 102/154/141 113/123/119 110/112/110
f 113/123/119 122/137/129 116/130/124
f 45/50/49 139/156/143 128/58/57
f 123/144/132 140/157/144 120/158/128
f 139/156/143 141/47/46 140/157/144
f 140/157/144 27/159/28 24/160/26
f 120/158/128 24/160/26 22/161/126
f 38/40/39 27/159/28 141/47/46
f 114/126/121 11/12/12 9/10/10
f 117/129/123 13/16/16 11/12/12
f 114/126/121 142/162/145 111/121/118
f 111/121/118 143/163/146 108/119/116
f 144/164/147 142/162/145 8/9/9
f 143/163/146 146/165/148 145/166/149
f 106/117/114 143/163/146 145/166/149
f 147/35/35 146/165/148 148/167/150
f 145/166/149 33/37/37 106/117/114
f 149/168/151 147/35/35 148/167/150
f 148/167/150 153/169/152 150/170/153
f 149/168/151 150/170/153 151/171/154
f 152/172/155 151/171/154 150/170/153
f 152/172/155 153/169/152 154/173/156
f 154/173/156 155/174/157 156/175/158
f 153/169/152 144/164/147 155/174/157
f 155/174/157 8/9/9 6/6/6
f 156/175/158 6/6/6 3/5/5
f 157/176/159 154/173/156 156/175/158
f 157/176/159 3/5/5 159/4/4
f 157/176/159 161/177/160 158/178/161
f 162/179/162 157/176/159 159/4/4
f 160/180/163 165/181/164 161/177/160
f 162/179/162 163/182/165 160/180/163
f 167/20/20 163/182/165 16/18/18
f 16/18/18 164/183/166 14/14/14
f 166/184/167 161/177/160 165/181/164
f 165/181/164 168/185/168 166/184/167
f 170/186/169 167/20/20 17/19/19
f 170/186/169 169/187/170 168/185/168
f 166/184/167 169/187/170 172/188/171
f 26/30/30 171/189/172 170/186/169
f 17/19/19 26/30/30 170/186/169
f 149/168/151 169/187/170 171/189/172
f 171/189/172 32/32/32 149/168/151
f 151/171/154 172/188/171 169/187/170
f 158/178/161 172/188/171 173/190/173
f 152/172/155 158/178/161 173/190/173
f 162/179/162 2/3/3 164/183/166
f 164/183/166 5/2/2 14/14/14
f 1/1/1 4/7/7 5/2/2
f 1/1/1 2/3/3 159/4/4
f 1/1/1 3/5/5 6/6/6
f 7/8/8 10/11/11 5/2/2
f 8/9/9 7/8/8 4/7/7
f 8/9/9 142/162/145 9/10/10
f 9/10/10 11/12/12 10/11/11
f 11/12/12 13/16/16 12/13/13
f 10/11/11 12/13/13 14/14/14
f 15/15/15 12/13/13 13/16/16
f 14/14/14 12/13/13 15/15/15
f 16/18/18 15/15/15 17/19/19
f 15/15/15 18/17/17 19/21/21
f 20/22/22 18/17/17 13/16/16
f 23/24/24 19/21/21 18/17/17
f 118/25/25 22/191/126 20/22/22
f 20/22/22 22/191/126 24/26/26
f 25/27/27 26/30/30 19/21/21
f 23/24/24 24/26/26 27/28/28
f 25/27/27 28/31/31 29/29/29
f 27/28/28 30/33/33 28/31/31
f 28/31/31 31/34/34 32/32/32
f 30/33/33 34/36/36 31/34/34
f 31/34/34 33/37/37 147/35/35
f 34/36/36 35/116/40 33/37/37
f 36/38/38 34/192/36 30/39/33
f 35/41/40 34/192/36 36/38/38
f 41/43/42 37/42/41 36/38/38
f 38/40/39 42/48/47 39/44/43
f 40/45/44 93/103/101 41/43/42
f 39/44/43 42/48/47 44/46/45
f 141/47/46 43/49/48 42/48/47
f 44/46/45 42/48/47 43/49/48
f 46/51/50 48/53/52 40/45/44
f 45/50/49 49/54/53 46/51/50
f 46/51/50 47/55/54 88/52/51
f 49/54/53 51/60/59 47/55/54
f 52/56/55 51/60/59 49/54/53
f 128/58/57 50/57/56 49/54/53
f 54/59/58 47/55/54 51/60/59
f 55/62/61 53/61/60 51/60/59
f 53/61/60 56/65/64 57/63/62
f 53/61/60 55/62/61 59/64/63
f 56/65/64 58/193/174 86/66/65
f 61/67/66 58/193/174 56/65/64
f 60/68/67 59/64/63 55/62/61
f 62/70/69 61/67/66 59/64/63
f 63/71/70 62/194/69 60/72/67
f 65/74/72 63/71/70 64/73/71
f 66/76/74 65/74/72 67/75/73
f 67/75/73 64/73/71 133/78/76
f 69/77/75 67/75/73 68/79/77
f 174/81/79 66/76/74 69/77/75
f 70/82/80 69/77/75 71/80/78
f 71/80/78 68/79/77 134/84/82
f 73/83/81 71/80/78 72/85/83
f 75/87/85 73/83/81 74/86/84
f 78/89/87 70/82/80 73/83/81
f 91/90/88 77/91/89 75/87/85
f 78/89/87 75/87/85 77/91/89
f 79/93/91 174/81/79 70/82/80
f 82/94/92 79/93/91 78/89/87
f 80/92/90 77/91/89 89/95/93
f 81/96/94 83/98/96 82/94/92
f 85/97/95 84/99/97 83/98/96
f 57/63/62 86/66/65 84/99/97
f 81/96/94 89/95/93 87/100/98
f 85/97/95 87/100/98 54/59/58
f 47/55/54 54/59/58 87/100/98
f 88/52/51 87/100/98 89/95/93
f 90/101/99 89/95/93 77/91/89
f 90/101/99 92/102/100 48/53/52
f 91/90/88 94/104/102 92/102/100
f 40/45/44 48/53/52 92/102/100
f 93/103/101 92/102/100 94/104/102
f 95/105/103 94/104/102 96/106/104
f 76/88/86 96/106/104 94/104/102
f 74/86/84 97/108/106 96/106/104
f 98/107/105 96/106/104 97/108/106
f 98/107/105 100/111/109 103/110/108
f 99/109/107 102/154/141 100/111/109
f 100/111/109 102/154/141 110/112/110
f 104/114/112 103/110/108 100/111/109
f 104/114/112 37/42/41 41/43/42
f 93/103/101 95/105/103 103/110/108
f 37/42/41 104/114/112 105/115/113
f 101/113/111 107/122/115 105/115/113
f 35/116/40 105/195/113 106/117/114
f 106/117/114 105/195/113 107/118/115
f 108/119/116 107/118/115 109/120/117
f 110/112/110 109/124/117 107/122/115
f 113/123/119 112/128/120 109/124/117
f 111/121/118 109/120/117 112/125/120
f 113/123/119 116/130/124 115/127/122
f 112/125/120 115/132/122 117/129/123
f 116/130/124 119/133/125 118/131/25
f 115/132/122 118/25/25 21/23/23
f 119/133/125 120/136/128 22/134/126
f 121/135/127 123/140/132 120/136/128
f 122/137/129 121/135/127 119/133/125
f 125/138/130 124/139/131 121/135/127
f 124/139/131 127/143/135 123/140/132
f 135/141/133 126/142/134 124/139/131
f 126/142/134 129/148/136 127/143/135
f 128/58/57 139/156/143 123/144/132
f 129/146/136 50/57/56 128/58/57
f 131/147/137 130/150/138 129/148/136
f 130/149/138 52/56/55 50/57/56
f 133/78/76 132/151/68 130/150/138
f 132/69/68 55/62/61 52/56/55
f 64/73/71 60/72/67 132/151/68
f 68/79/77 133/78/76 131/147/137
f 134/84/82 131/147/137 126/142/134
f 72/85/83 134/84/82 135/141/133
f 136/152/139 135/141/133 125/138/130
f 74/86/84 72/85/83 136/152/139
f 97/108/106 136/152/139 137/153/140
f 137/153/140 138/155/142 102/154/141
f 137/153/140 125/138/130 122/137/129
f 102/154/141 138/155/142 113/123/119
f 113/123/119 138/155/142 122/137/129
f 45/50/49 43/49/48 139/156/143
f 123/144/132 139/156/143 140/157/144
f 139/156/143 43/49/48 141/47/46
f 140/157/144 141/47/46 27/159/28
f 120/158/128 140/157/144 24/160/26
f 38/40/39 30/39/33 27/159/28
f 114/126/121 117/129/123 11/12/12
f 117/129/123 21/23/23 13/16/16
f 114/126/121 9/10/10 142/162/145
f 111/121/118 142/162/145 143/163/146
f 144/164/147 143/163/146 142/162/145
f 143/163/146 144/164/147 146/165/148
f 106/117/114 108/119/116 143/163/146
f 147/35/35 145/166/149 146/165/148
f 145/166/149 147/35/35 33/37/37
f 149/168/151 32/32/32 147/35/35
f 148/167/150 146/165/148 153/169/152
f 149/168/151 148/167/150 150/170/153
f 152/172/155 173/190/173 151/171/154
f 152/172/155 150/170/153 153/169/152
f 154/173/156 153/169/152 155/174/157
f 153/169/152 146/165/148 144/164/147
f 155/174/157 144/164/147 8/9/9
f 156/175/158 155/174/157 6/6/6
f 157/176/159 158/178/161 154/173/156
f 157/176/159 156/175/158 3/5/5
f 157/176/159 160/180/163 161/177/160
f 162/179/162 160/180/163 157/176/159
f 160/180/163 163/182/165 165/181/164
f 162/179/162 164/183/166 163/182/165
f 167/20/20 165/181/164 163/182/165
f 16/18/18 163/182/165 164/183/166
f 166/184/167 172/188/171 161/177/160
f 165/181/164 167/20/20 168/185/168
f 170/186/169 168/185/168 167/20/20
f 170/186/169 171/189/172 169/187/170
f 166/184/167 168/185/168 169/187/170
f 26/30/30 29/29/29 171/189/172
f 17/19/19 19/21/21 26/30/30
f 149/168/151 151/171/154 169/187/170
f 171/189/172 29/29/29 32/32/32
f 151/171/154 173/190/173 172/188/171
f 158/178/161 161/177/160 172/188/171
f 152/172/155 154/173/156 158/178/161
f 162/179/162 159/4/4 2/3/3
f 164/183/166 2/3/3 5/2/2
