# Blender v3.6.9 OBJ File: 'v14_AlignTipWithCapsule.blend'
# www.blender.org
mtllib roy_k2v3_right.mtl
v 0.007494 0.024745 0.056844
v 0.008136 0.024867 0.056689
v 0.006300 0.025641 0.058042
v 0.006883 0.024901 0.057227
v 0.007468 0.024538 0.056479
v 0.007059 0.024499 0.056552
v 0.007308 0.024794 0.056988
v 0.007738 0.024886 0.056965
v 0.007836 0.024684 0.056556
v 0.007561 0.024999 0.057210
v 0.008129 0.025083 0.057053
v 0.008651 0.025291 0.056993
v 0.008509 0.024901 0.056445
v 0.008088 0.024558 0.056098
v 0.006086 0.025369 0.057737
v 0.005581 0.025555 0.057812
v 0.006002 0.025918 0.058247
v 0.006624 0.026162 0.058512
v 0.006740 0.025760 0.058181
v 0.006665 0.025340 0.057765
v 0.006520 0.024769 0.057049
v 0.006536 0.025037 0.057410
v 0.006997 0.025094 0.057468
v 0.007086 0.024849 0.057125
v 0.006720 0.024581 0.056751
v 0.007306 0.025072 0.057387
v 0.007166 0.025408 0.057811
v 0.007617 0.025417 0.057724
v 0.007975 0.025297 0.057441
v 0.007959 0.025824 0.058034
v 0.008436 0.025618 0.057585
v 0.008217 0.026176 0.058247
v 0.008806 0.025899 0.057663
v 0.009061 0.025469 0.056899
v 0.009090 0.026129 0.057701
v 0.009351 0.025604 0.056817
v 0.009114 0.025003 0.056005
v 0.008855 0.024953 0.056195
v 0.008491 0.024472 0.055453
v 0.008310 0.024500 0.055736
v 0.007628 0.024107 0.055231
v 0.007576 0.024194 0.055567
v 0.007512 0.024327 0.055980
v 0.006772 0.024093 0.055666
v 0.006890 0.024257 0.056080
v 0.006042 0.024235 0.056011
v 0.006343 0.024370 0.056358
v 0.005542 0.024599 0.056569
v 0.005984 0.024647 0.056788
v 0.005400 0.025094 0.057233
v 0.005907 0.025025 0.057303
v 0.005230 0.024585 0.056399
v 0.005039 0.025158 0.057167
v 0.005247 0.025709 0.057865
v 0.004697 0.025228 0.057097
v 0.004935 0.025862 0.057909
v 0.005536 0.026380 0.058532
v 0.005764 0.026150 0.058397
v 0.006415 0.026736 0.058904
v 0.006514 0.026455 0.058723
v 0.007499 0.026874 0.058926
v 0.007454 0.026584 0.058757
v 0.007406 0.026271 0.058551
v 0.008407 0.026466 0.058392
v 0.007328 0.025875 0.058243
v 0.008577 0.026748 0.058507
v 0.009355 0.026356 0.057719
v 0.008726 0.027016 0.058606
v 0.009596 0.026572 0.057730
v 0.009927 0.025887 0.056629
v 0.009648 0.025746 0.056721
v 0.009642 0.025117 0.055599
v 0.009385 0.025062 0.055797
v 0.008838 0.024437 0.054873
v 0.008670 0.024452 0.055158
v 0.007721 0.023980 0.054571
v 0.007677 0.024037 0.054892
v 0.006505 0.023846 0.054690
v 0.006592 0.023908 0.055005
v 0.006682 0.023988 0.055329
v 0.005604 0.024103 0.055470
v 0.005817 0.024158 0.055742
v 0.004922 0.024587 0.056219
v 0.005399 0.024060 0.055208
v 0.004636 0.024592 0.056049
v 0.004375 0.025299 0.057031
v 0.004356 0.024466 0.055966
v 0.004056 0.025261 0.057043
v 0.004337 0.026069 0.058064
v 0.004632 0.026014 0.057950
v 0.005111 0.026750 0.058845
v 0.005322 0.026604 0.058653
v 0.006237 0.027211 0.059283
v 0.006328 0.026998 0.059059
v 0.007578 0.027385 0.059263
v 0.007533 0.027153 0.059070
v 0.008891 0.027222 0.058750
v 0.007647 0.027355 0.059545
v 0.009041 0.027170 0.058993
v 0.010060 0.026577 0.058000
v 0.009864 0.026709 0.057804
v 0.010429 0.025736 0.056754
v 0.010232 0.025931 0.056606
v 0.010089 0.024811 0.055597
v 0.009924 0.025058 0.055480
v 0.009160 0.024007 0.054774
v 0.009037 0.024290 0.054679
v 0.007867 0.023474 0.054418
v 0.007795 0.023786 0.054338
v 0.006457 0.023331 0.054555
v 0.006444 0.023637 0.054471
v 0.005172 0.023582 0.055149
v 0.005214 0.023876 0.055046
v 0.004277 0.024192 0.056103
v 0.005229 0.023226 0.055420
v 0.004333 0.023831 0.056372
v 0.004002 0.024640 0.057483
v 0.003953 0.025010 0.057221
v 0.004266 0.025506 0.058547
v 0.004226 0.025868 0.058286
v 0.005056 0.026276 0.059374
v 0.005023 0.026612 0.059112
v 0.006277 0.026830 0.059839
v 0.006214 0.027131 0.059575
v 0.007739 0.027055 0.059807
v 0.006408 0.026115 0.060442
v 0.007896 0.026349 0.060401
v 0.009298 0.026155 0.059822
v 0.009131 0.026859 0.059251
v 0.010302 0.025555 0.058805
v 0.010144 0.026258 0.058232
v 0.010667 0.024682 0.057599
v 0.010503 0.025415 0.057011
v 0.010341 0.023740 0.056468
v 0.010171 0.024482 0.055873
v 0.009424 0.022915 0.055644
v 0.009245 0.023666 0.055045
v 0.008114 0.022368 0.055267
v 0.007945 0.023133 0.054681
v 0.006670 0.022200 0.055403
v 0.006519 0.022978 0.054817
v 0.005375 0.022436 0.056008
v 0.006979 0.020643 0.056575
v 0.005657 0.020877 0.057179
v 0.004726 0.021472 0.058143
v 0.004471 0.023026 0.056962
v 0.004359 0.022311 0.059282
v 0.004123 0.023849 0.058079
v 0.004617 0.023231 0.060375
v 0.004380 0.024740 0.059150
v 0.005440 0.024024 0.061248
v 0.005181 0.025540 0.059986
v 0.006675 0.024229 0.061997
v 0.005803 0.021936 0.062999
v 0.007066 0.022539 0.063453
v 0.008643 0.022796 0.063398
v 0.008208 0.024873 0.061647
v 0.010059 0.022593 0.062807
v 0.009623 0.024703 0.061021
v 0.011098 0.021958 0.061766
v 0.010622 0.024091 0.060021
v 0.011489 0.021056 0.060547
v 0.011003 0.023209 0.058830
v 0.011184 0.020085 0.059406
v 0.010695 0.022241 0.057691
v 0.010233 0.019199 0.058526
v 0.009775 0.021389 0.056844
v 0.008877 0.018620 0.058124
v 0.008445 0.020821 0.056451
v 0.007376 0.018433 0.058248
v 0.006026 0.018674 0.058870
v 0.005073 0.019282 0.059856
v 0.004697 0.020141 0.061020
v 0.004950 0.021066 0.062115
vt 0.492668 0.969270
vt 0.490566 0.970409
vt 0.492038 0.968526
vt 0.493841 0.970631
vt 0.492202 0.970908
vt 0.493339 0.967539
vt 0.493832 0.968750
vt 0.495265 0.970021
vt 0.497833 0.968451
vt 0.496660 0.971025
vt 0.495604 0.968326
vt 0.494505 0.972604
vt 0.489211 0.962139
vt 0.486114 0.962408
vt 0.488331 0.960510
vt 0.491174 0.959627
vt 0.491153 0.961801
vt 0.490295 0.964112
vt 0.487969 0.963589
vt 0.490541 0.967120
vt 0.489345 0.965881
vt 0.491283 0.965976
vt 0.489372 0.969270
vt 0.488874 0.967676
vt 0.491261 0.967755
vt 0.492467 0.966568
vt 0.492396 0.964255
vt 0.494170 0.964915
vt 0.495367 0.966429
vt 0.496034 0.963211
vt 0.497551 0.965574
vt 0.497462 0.961875
vt 0.499301 0.964940
vt 0.499572 0.968654
vt 0.500639 0.964484
vt 0.500799 0.968820
vt 0.498928 0.972673
vt 0.497953 0.971980
vt 0.495702 0.975187
vt 0.495153 0.974076
vt 0.491818 0.976028
vt 0.491864 0.974720
vt 0.491940 0.973040
vt 0.488601 0.973934
vt 0.489434 0.972342
vt 0.485957 0.971829
vt 0.487472 0.970684
vt 0.484534 0.968700
vt 0.486476 0.968308
vt 0.484709 0.965231
vt 0.486741 0.965660
vt 0.483263 0.964935
vt 0.484916 0.961536
vt 0.483799 0.960714
vt 0.486966 0.957995
vt 0.487634 0.959222
vt 0.491072 0.958111
vt 0.490989 0.956730
vt 0.494982 0.958535
vt 0.494434 0.959945
vt 0.493644 0.961854
vt 0.498530 0.960847
vt 0.495477 0.957297
vt 0.499492 0.959913
vt 0.501892 0.964082
vt 0.500356 0.959047
vt 0.503034 0.963706
vt 0.502049 0.969021
vt 0.500916 0.974114
vt 0.499948 0.973410
vt 0.496750 0.977385
vt 0.496243 0.976315
vt 0.491727 0.978481
vt 0.491772 0.977302
vt 0.486788 0.977343
vt 0.487364 0.976291
vt 0.487967 0.975165
vt 0.483788 0.973435
vt 0.484840 0.972652
vt 0.481825 0.969238
vt 0.483167 0.968971
vt 0.480581 0.969485
vt 0.480618 0.964373
vt 0.481898 0.964649
vt 0.479309 0.964142
vt 0.481630 0.959146
vt 0.482712 0.959909
vt 0.485705 0.955675
vt 0.486339 0.956838
vt 0.490925 0.955487
vt 0.490846 0.954159
vt 0.495908 0.956158
vt 0.496376 0.954999
vt 0.501256 0.958216
vt 0.496789 0.954271
vt 0.501961 0.957740
vt 0.455202 0.955552
vt 0.449023 0.954537
vt 0.455029 0.954650
vt 0.443097 0.955301
vt 0.443539 0.954159
vt 0.504259 0.963368
vt 0.503230 0.969190
vt 0.979098 0.554739
vt 0.973817 0.555886
vt 0.973695 0.554663
vt 0.501940 0.974892
vt 0.504480 0.969427
vt 0.967694 0.555824
vt 0.967811 0.554569
vt 0.497330 0.978550
vt 0.962344 0.555708
vt 0.962695 0.554437
vt 0.491747 0.979773
vt 0.972110 0.681736
vt 0.968647 0.683305
vt 0.968352 0.682065
vt 0.486259 0.978507
vt 0.963179 0.683384
vt 0.963100 0.682158
vt 0.481803 0.974977
vt 0.957207 0.683231
vt 0.957353 0.682007
vt 0.479309 0.969812
vt 0.482780 0.974168
vt 0.957200 0.685109
vt 0.952003 0.684853
vt 0.951992 0.682967
vt 0.534850 0.952867
vt 0.531151 0.954907
vt 0.531054 0.953054
vt 0.534313 0.951653
vt 0.525973 0.954994
vt 0.525897 0.953224
vt 0.530629 0.951889
vt 0.520184 0.953343
vt 0.520362 0.952336
vt 0.525718 0.952128
vt 0.520095 0.955019
vt 0.514749 0.953223
vt 0.515322 0.952357
vt 0.514561 0.954905
vt 0.519987 0.958930
vt 0.514351 0.958776
vt 0.460792 0.960931
vt 0.455164 0.957266
vt 0.460729 0.957055
vt 0.460747 0.955364
vt 0.455141 0.961083
vt 0.448710 0.957273
vt 0.448820 0.955605
vt 0.443067 0.960983
vt 0.443083 0.957034
vt 0.979539 0.557619
vt 0.974015 0.561689
vt 0.973908 0.557690
vt 0.979492 0.555888
vt 0.967871 0.561703
vt 0.967755 0.557660
vt 0.962398 0.561573
vt 0.962368 0.557522
vt 0.972623 0.684811
vt 0.968718 0.689210
vt 0.968665 0.685138
vt 0.972586 0.683006
vt 0.963215 0.689363
vt 0.963163 0.685248
vt 0.963281 0.697505
vt 0.957211 0.697415
vt 0.957253 0.689274
vt 0.951791 0.697112
vt 0.951969 0.688983
vt 0.534986 0.958880
vt 0.531155 0.967083
vt 0.531185 0.958973
vt 0.534927 0.954749
vt 0.525906 0.958994
vt 0.525760 0.967230
vt 0.520019 0.969117
vt 0.525519 0.978616
vt 0.519424 0.978476
vt 0.513458 0.978254
vt 0.513974 0.966872
vt 0.460976 0.969035
vt 0.455504 0.980588
vt 0.455202 0.969001
vt 0.448868 0.980665
vt 0.448820 0.969077
vt 0.443151 0.969054
vt 0.448721 0.961088
vt 0.979955 0.569618
vt 0.974566 0.581404
vt 0.974305 0.569824
vt 0.979634 0.561564
vt 0.968065 0.581457
vt 0.968037 0.569873
vt 0.962344 0.581337
vt 0.962431 0.569753
vt 0.972847 0.696992
vt 0.968897 0.708929
vt 0.968849 0.697358
vt 0.972706 0.688844
vt 0.963190 0.709086
vt 0.956981 0.708996
vt 0.531159 0.978669
vt 0.535036 0.967025
vt 0.535036 0.978623
vt 0.952352 0.681736
vt 0.461242 0.980426
vt 0.443067 0.980637
vt 0.980223 0.581191
vt 0.972976 0.708547
vt 0.951437 0.708678
vn -0.2043 0.8448 -0.4946
vn -0.1131 0.8825 -0.4564
vn -0.1514 0.8358 -0.5278
vn -0.2825 0.8544 -0.4360
vn -0.2078 0.8791 -0.4290
vn -0.2128 0.7963 -0.5663
vn -0.2592 0.8169 -0.5153
vn -0.3374 0.8227 -0.4575
vn -0.4081 0.7606 -0.5050
vn -0.3934 0.8173 -0.4210
vn -0.3292 0.7862 -0.5230
vn -0.3243 0.8692 -0.3733
vn 0.0872 0.6835 -0.7247
vn 0.1891 0.7017 -0.6869
vn 0.1275 0.6485 -0.7504
vn 0.0208 0.6103 -0.7919
vn 0.0000 0.6674 -0.7447
vn 0.0139 0.7322 -0.6810
vn 0.1214 0.7258 -0.6770
vn -0.0463 0.8094 -0.5854
vn 0.0403 0.7782 -0.6267
vn -0.0644 0.7734 -0.6307
vn -0.0268 0.8656 -0.5001
vn 0.0358 0.8273 -0.5607
vn -0.1024 0.8255 -0.5550
vn -0.1460 0.7821 -0.6058
vn -0.0926 0.7244 -0.6832
vn -0.1982 0.7294 -0.6547
vn -0.2875 0.7544 -0.5901
vn -0.2569 0.6674 -0.6990
vn -0.3632 0.7083 -0.6053
vn -0.3036 0.6066 -0.7348
vn -0.4219 0.6639 -0.6174
vn -0.4611 0.7376 -0.4933
vn -0.4635 0.6268 -0.6264
vn -0.4921 0.7201 -0.4892
vn -0.4529 0.8068 -0.3794
vn -0.4294 0.8119 -0.3955
vn -0.3698 0.8795 -0.2995
vn -0.3526 0.8756 -0.3302
vn -0.2318 0.9402 -0.2495
vn -0.2284 0.9267 -0.2984
vn -0.2197 0.9068 -0.3599
vn -0.0639 0.9481 -0.3115
vn -0.0865 0.9201 -0.3821
vn 0.0949 0.9187 -0.3834
vn 0.0419 0.8963 -0.4415
vn 0.1953 0.8485 -0.4918
vn 0.1240 0.8419 -0.5251
vn 0.2197 0.7684 -0.6011
vn 0.1456 0.7781 -0.6110
vn 0.2629 0.7628 -0.5908
vn 0.2268 0.6859 -0.6914
vn 0.2429 0.6786 -0.6932
vn 0.1707 0.6021 -0.7799
vn 0.1531 0.6229 -0.7672
vn 0.0334 0.5674 -0.8228
vn 0.0389 0.5331 -0.8452
vn -0.1446 0.5354 -0.8321
vn -0.1338 0.5880 -0.7978
vn -0.1188 0.6544 -0.7468
vn -0.3394 0.5523 -0.7614
vn -0.1579 0.4898 -0.8574
vn -0.3631 0.5119 -0.7785
vn -0.4900 0.5991 -0.6332
vn -0.3039 0.6069 -0.7344
vn -0.3510 0.7008 -0.6210
vn -0.5100 0.7078 -0.4888
vn -0.2542 0.8159 -0.5193
vn -0.4623 0.8049 -0.3721
vn -0.2218 0.8329 -0.5070
vn -0.3785 0.8831 -0.2773
vn -0.1816 0.8595 -0.4777
vn -0.2301 0.9497 -0.2124
vn -0.1010 0.8745 -0.4744
vn -0.0280 0.9778 -0.2075
vn -0.0450 0.9661 -0.2541
vn 0.1604 0.9409 -0.2984
vn 0.1370 0.9330 -0.3329
vn 0.2689 0.8563 -0.4410
vn 0.2460 0.8528 -0.4607
vn 0.0303 0.8317 -0.5544
vn 0.0613 0.7971 -0.6008
vn 0.2826 0.7629 -0.5814
vn -0.6733 0.5858 -0.4511
vn -0.5864 0.7580 -0.2856
vn 0.0612 0.7560 -0.6518
vn -0.4005 0.8940 -0.2007
vn 0.0561 0.7050 -0.7070
vn -0.0147 0.6347 -0.7726
vn -0.2170 0.9534 -0.2095
vn -0.1584 0.5760 -0.8020
vn -0.0780 0.9507 -0.3002
vn 0.0638 0.9428 -0.3271
vn 0.0731 0.8825 0.4646
vn 0.4619 0.8258 0.3235
vn 0.2859 0.8849 -0.3678
vn 0.9120 0.3352 -0.2364
vn 0.4170 0.7417 -0.5254
vn -0.3171 0.7738 -0.5483
vn 0.8325 0.0195 -0.5537
vn 0.4256 0.5388 -0.7270
vn 0.5621 -0.2434 -0.7904
vn 0.2701 0.3512 -0.8965
vn 0.1714 -0.4057 -0.8978
vn 0.0118 0.2529 -0.9674
vn -0.2502 -0.4490 -0.8578
vn -0.2491 0.2203 -0.9431
vn -0.6307 -0.3716 -0.6812
vn -0.4835 0.2770 -0.8304
vn -0.8980 -0.1847 -0.3992
vn -0.6400 0.4075 -0.6514
vn -0.0250 0.8601 -0.5095
vn -0.8910 -0.3544 -0.2838
vn -0.9932 -0.1051 0.0499
vn -0.9947 0.0718 -0.0740
vn -0.9149 0.1603 0.3706
vn -0.9092 0.3511 0.2236
vn -0.6721 0.4068 0.6187
vn -0.6600 0.6123 0.4352
vn -0.3159 0.7910 0.5239
vn -0.2964 0.5888 0.7520
vn 0.1445 0.6644 0.7332
vn -0.2956 0.5826 0.7571
vn 0.1483 0.6547 0.7412
vn 0.5638 0.6061 0.5611
vn 0.5708 0.5944 0.5665
vn 0.8735 0.4127 0.2582
vn 0.7844 0.6133 0.0923
vn 0.9847 0.1443 -0.0981
vn 0.9843 0.1462 -0.0990
vn 0.8881 -0.1449 -0.4361
vn 0.8873 -0.1458 -0.4376
vn 0.6128 -0.3970 -0.6833
vn 0.6070 -0.3985 -0.6876
vn 0.2154 -0.5638 -0.7973
vn 0.2094 -0.5657 -0.7976
vn -0.2216 -0.6138 -0.7578
vn -0.2282 -0.6101 -0.7588
vn -0.6122 -0.5420 -0.5757
vn -0.6183 -0.5372 -0.5737
vn -0.6048 -0.5464 -0.5794
vn -0.8822 -0.3691 -0.2924
vn -0.8860 -0.3637 -0.2876
vn -0.9919 -0.1184 0.0452
vn -0.9921 -0.1150 0.0496
vn -0.9159 0.1558 0.3699
vn -0.9154 0.1561 0.3711
vn -0.6716 0.4031 0.6217
vn -0.6750 0.4021 0.6186
vn -0.3074 0.5794 0.7548
vn -0.6720 0.4010 0.6226
vn -0.2884 0.5858 0.7574
vn 0.1499 0.6577 0.7383
vn 0.1477 0.6548 0.7413
vn 0.5720 0.5954 0.5642
vn 0.5738 0.5951 0.5627
vn 0.8710 0.4126 0.2665
vn 0.8707 0.4129 0.2671
vn 0.9847 0.1505 -0.0879
vn 0.8726 0.4113 0.2635
vn 0.8948 -0.1360 -0.4253
vn 0.8934 -0.1389 -0.4272
vn 0.6215 -0.3917 -0.6785
vn 0.6206 -0.3929 -0.6786
vn 0.2270 -0.5607 -0.7963
vn 0.2255 -0.5618 -0.7959
vn -0.2119 -0.6143 -0.7601
vn -0.2116 -0.6152 -0.7594
vn -0.6057 -0.5454 -0.5793
vn -0.8822 -0.3687 -0.2928
vn -0.9173 0.1537 0.3673
vn -0.9919 -0.1191 0.0439
vn 0.9845 0.1517 -0.0886
s 1
f 1/1/1 6/2/2 7/3/3
f 1/1/1 9/4/4 5/5/5
f 1/1/1 10/6/6 8/7/7
f 2/8/8 12/9/9 13/10/10
f 2/8/8 8/7/7 11/11/11
f 2/8/8 14/12/12 9/4/4
f 3/13/13 16/14/14 17/15/15
f 3/13/13 18/16/16 19/17/17
f 3/13/13 20/18/18 15/19/19
f 4/20/20 22/21/21 23/22/22
f 4/20/20 25/23/23 21/24/24
f 23/22/22 24/25/25 4/20/20
f 26/26/26 27/27/27 28/28/28
f 28/28/28 10/6/6 26/26/26
f 26/26/26 7/3/3 24/25/25
f 29/29/29 30/30/30 31/31/31
f 29/29/29 12/9/9 11/11/11
f 11/11/11 10/6/6 29/29/29
f 31/31/31 32/32/32 33/33/33
f 33/33/33 12/9/9 31/31/31
f 34/34/34 35/35/35 36/36/36
f 34/34/34 37/37/37 38/38/38
f 38/38/38 12/9/9 34/34/34
f 38/38/38 39/39/39 40/40/40
f 40/40/40 13/10/10 38/38/38
f 40/40/40 41/41/41 42/42/42
f 42/42/42 14/12/12 40/40/40
f 43/43/43 44/44/44 45/45/45
f 43/43/43 6/2/2 5/5/5
f 5/5/5 14/12/12 43/43/43
f 45/45/45 46/46/46 47/47/47
f 47/47/47 6/2/2 45/45/45
f 47/47/47 48/48/48 49/49/49
f 49/49/49 25/23/23 47/47/47
f 49/49/49 50/50/50 51/51/51
f 51/51/51 21/24/24 49/49/49
f 51/51/51 16/14/14 15/19/19
f 15/19/19 22/21/21 51/51/51
f 48/48/48 53/52/52 50/50/50
f 50/50/50 54/53/53 16/14/14
f 53/52/52 56/54/54 54/53/53
f 54/53/53 57/55/55 58/56/56
f 58/56/56 16/14/14 54/53/53
f 57/55/55 60/57/57 58/56/56
f 58/56/56 18/16/16 17/15/15
f 59/58/58 62/59/59 60/57/57
f 60/57/57 63/60/60 18/16/16
f 62/59/59 32/32/32 63/60/60
f 63/60/60 30/30/30 65/61/61
f 65/61/61 18/16/16 63/60/60
f 65/61/61 28/28/28 27/27/27
f 27/27/27 19/17/17 65/61/61
f 64/62/62 61/63/63 66/64/64
f 66/64/64 35/35/35 64/62/62
f 64/62/62 33/33/33 32/32/32
f 67/65/65 68/66/66 69/67/67
f 69/67/67 71/68/68 67/65/65
f 67/65/65 36/36/36 35/35/35
f 71/68/68 72/69/69 73/70/70
f 73/70/70 36/36/36 71/68/68
f 73/70/70 74/71/71 75/72/72
f 75/72/72 37/37/37 73/70/70
f 75/72/72 76/73/73 77/74/74
f 77/74/74 39/39/39 75/72/72
f 77/74/74 78/75/75 79/76/76
f 79/76/76 41/41/41 77/74/74
f 80/77/77 81/78/78 82/79/79
f 82/79/79 44/44/44 80/77/77
f 80/77/77 42/42/42 41/41/41
f 82/79/79 83/80/80 52/81/81
f 52/81/81 46/46/46 82/79/79
f 81/78/78 85/82/82 83/80/80
f 83/80/80 86/83/83 55/84/84
f 55/84/84 52/81/81 83/80/80
f 85/82/82 88/85/85 86/83/83
f 86/83/83 89/86/86 90/87/87
f 90/87/87 55/84/84 86/83/83
f 90/87/87 91/88/88 92/89/89
f 92/89/89 56/54/54 90/87/87
f 91/88/88 94/90/90 92/89/89
f 92/89/89 59/58/58 57/55/55
f 93/91/91 96/92/92 94/90/90
f 94/90/90 61/63/63 59/58/58
f 95/93/93 68/66/66 96/92/92
f 96/92/92 66/64/64 61/63/63
f 97/94/94 98/95/95 99/96/96
f 99/97/96 101/98/97 97/99/94
f 97/94/94 69/67/67 68/66/66
f 101/98/97 102/100/98 103/101/99
f 101/102/97 70/103/100 69/67/67
f 103/104/99 104/105/101 105/106/102
f 105/107/102 70/103/100 103/108/99
f 105/106/102 106/109/103 107/110/104
f 107/111/104 72/69/69 105/107/102
f 107/110/104 108/112/105 109/113/106
f 109/114/106 74/71/71 107/111/104
f 109/115/106 110/116/107 111/117/108
f 111/118/108 76/73/73 109/114/106
f 111/117/108 112/119/109 113/120/110
f 113/121/110 78/75/75 111/118/108
f 113/120/110 114/122/111 87/123/112
f 87/124/112 84/125/113 113/121/110
f 112/119/109 116/126/114 114/122/111
f 114/122/111 117/127/115 118/128/116
f 118/128/116 87/123/112 114/122/111
f 118/129/116 119/130/117 120/131/118
f 120/131/118 88/132/85 118/129/116
f 120/131/118 121/133/119 122/134/120
f 122/134/120 89/135/86 120/131/118
f 121/133/119 124/136/121 122/134/120
f 122/134/120 93/137/91 91/138/88
f 123/139/122 98/140/95 124/136/121
f 124/136/121 95/141/93 93/137/91
f 125/142/123 126/143/124 127/144/125
f 127/145/125 129/146/126 125/147/123
f 125/147/123 99/97/96 98/148/95
f 128/149/127 131/150/128 129/146/126
f 129/146/126 100/151/129 99/97/96
f 131/150/128 132/152/130 133/153/131
f 133/153/131 100/151/129 131/150/128
f 133/154/131 134/155/132 135/156/133
f 135/156/133 102/157/98 133/154/131
f 135/156/133 136/158/134 137/159/135
f 137/159/135 104/105/101 135/156/133
f 137/159/135 138/160/136 139/161/137
f 139/161/137 106/109/103 137/159/135
f 139/162/137 140/163/138 141/164/139
f 141/164/139 108/165/105 139/162/137
f 141/164/139 142/166/140 115/167/141
f 115/167/141 110/116/107 141/164/139
f 140/163/138 144/168/142 142/166/140
f 142/166/140 145/169/143 146/170/144
f 146/170/144 115/167/141 142/166/140
f 146/170/144 147/171/145 148/172/146
f 148/172/146 116/126/114 146/170/144
f 148/173/146 149/174/147 150/175/148
f 150/175/148 117/176/115 148/173/146
f 149/174/147 152/177/149 150/175/148
f 150/175/148 121/133/119 119/130/117
f 151/178/150 126/143/124 152/177/149
f 152/177/149 123/139/122 121/133/119
f 153/179/151 154/180/152 155/181/153
f 153/179/151 156/182/154 157/183/155
f 157/183/155 126/143/124 153/179/151
f 157/184/155 158/185/156 159/186/157
f 159/186/157 127/145/125 157/184/155
f 159/186/157 160/187/158 161/188/159
f 161/188/159 128/149/127 159/186/157
f 160/187/158 163/189/160 161/188/159
f 163/189/160 130/190/161 161/188/159
f 163/191/160 164/192/162 165/193/163
f 165/193/163 132/194/130 163/191/160
f 165/193/163 166/195/164 167/196/165
f 167/196/165 134/155/132 165/193/163
f 167/196/165 168/197/166 169/198/167
f 169/198/167 136/158/134 167/196/165
f 169/199/167 170/200/168 143/201/169
f 143/201/169 138/202/136 169/199/167
f 171/203/170 143/201/169 170/200/168
f 171/203/170 145/169/143 144/168/142
f 172/204/171 147/171/145 145/169/143
f 174/205/172 147/206/145 173/207/173
f 174/205/172 151/178/150 149/174/147
f 81/78/78 78/75/75 84/125/113
f 23/22/22 20/18/18 27/27/27
f 25/23/23 7/3/3 6/2/2
f 1/1/1 5/5/5 6/2/2
f 1/1/1 8/7/7 9/4/4
f 1/1/1 7/3/3 10/6/6
f 2/8/8 11/11/11 12/9/9
f 2/8/8 9/4/4 8/7/7
f 2/8/8 13/10/10 14/12/12
f 3/13/13 15/19/19 16/14/14
f 3/13/13 17/15/15 18/16/16
f 3/13/13 19/17/17 20/18/18
f 4/20/20 21/24/24 22/21/21
f 4/20/20 24/25/25 25/23/23
f 23/22/22 26/26/26 24/25/25
f 26/26/26 23/22/22 27/27/27
f 28/28/28 29/29/29 10/6/6
f 26/26/26 10/6/6 7/3/3
f 29/29/29 28/28/28 30/30/30
f 29/29/29 31/31/31 12/9/9
f 11/11/11 8/7/7 10/6/6
f 31/31/31 30/30/30 32/32/32
f 33/33/33 34/34/34 12/9/9
f 34/34/34 33/33/33 35/35/35
f 34/34/34 36/36/36 37/37/37
f 38/38/38 13/10/10 12/9/9
f 38/38/38 37/37/37 39/39/39
f 40/40/40 14/12/12 13/10/10
f 40/40/40 39/39/39 41/41/41
f 42/42/42 43/43/43 14/12/12
f 43/43/43 42/42/42 44/44/44
f 43/43/43 45/45/45 6/2/2
f 5/5/5 9/4/4 14/12/12
f 45/45/45 44/44/44 46/46/46
f 47/47/47 25/23/23 6/2/2
f 47/47/47 46/46/46 48/48/48
f 49/49/49 21/24/24 25/23/23
f 49/49/49 48/48/48 50/50/50
f 51/51/51 22/21/21 21/24/24
f 51/51/51 50/50/50 16/14/14
f 15/19/19 20/18/18 22/21/21
f 48/48/48 52/81/81 53/52/52
f 50/50/50 53/52/52 54/53/53
f 53/52/52 55/84/84 56/54/54
f 54/53/53 56/54/54 57/55/55
f 58/56/56 17/15/15 16/14/14
f 57/55/55 59/58/58 60/57/57
f 58/56/56 60/57/57 18/16/16
f 59/58/58 61/63/63 62/59/59
f 60/57/57 62/59/59 63/60/60
f 62/59/59 64/62/62 32/32/32
f 63/60/60 32/32/32 30/30/30
f 65/61/61 19/17/17 18/16/16
f 65/61/61 30/30/30 28/28/28
f 27/27/27 20/18/18 19/17/17
f 64/62/62 62/59/59 61/63/63
f 66/64/64 67/65/65 35/35/35
f 64/62/62 35/35/35 33/33/33
f 67/65/65 66/64/64 68/66/66
f 69/67/67 70/103/100 71/68/68
f 67/65/65 71/68/68 36/36/36
f 71/68/68 70/103/100 72/69/69
f 73/70/70 37/37/37 36/36/36
f 73/70/70 72/69/69 74/71/71
f 75/72/72 39/39/39 37/37/37
f 75/72/72 74/71/71 76/73/73
f 77/74/74 41/41/41 39/39/39
f 77/74/74 76/73/73 78/75/75
f 79/76/76 80/77/77 41/41/41
f 80/77/77 79/76/76 81/78/78
f 82/79/79 46/46/46 44/44/44
f 80/77/77 44/44/44 42/42/42
f 82/79/79 81/78/78 83/80/80
f 52/81/81 48/48/48 46/46/46
f 81/78/78 84/125/113 85/82/82
f 83/80/80 85/82/82 86/83/83
f 55/84/84 53/52/52 52/81/81
f 85/82/82 87/124/112 88/85/85
f 86/83/83 88/85/85 89/86/86
f 90/87/87 56/54/54 55/84/84
f 90/87/87 89/86/86 91/88/88
f 92/89/89 57/55/55 56/54/54
f 91/88/88 93/91/91 94/90/90
f 92/89/89 94/90/90 59/58/58
f 93/91/91 95/93/93 96/92/92
f 94/90/90 96/92/92 61/63/63
f 95/93/93 97/94/94 68/66/66
f 96/92/92 68/66/66 66/64/64
f 97/94/94 95/93/93 98/95/95
f 99/97/96 100/151/129 101/98/97
f 97/94/94 101/102/97 69/67/67
f 101/98/97 100/151/129 102/100/98
f 101/102/97 103/108/99 70/103/100
f 103/104/99 102/157/98 104/105/101
f 105/107/102 72/69/69 70/103/100
f 105/106/102 104/105/101 106/109/103
f 107/111/104 74/71/71 72/69/69
f 107/110/104 106/109/103 108/112/105
f 109/114/106 76/73/73 74/71/71
f 109/115/106 108/165/105 110/116/107
f 111/118/108 78/75/75 76/73/73
f 111/117/108 110/116/107 112/119/109
f 113/121/110 84/125/113 78/75/75
f 113/120/110 112/119/109 114/122/111
f 87/124/112 85/82/82 84/125/113
f 112/119/109 115/167/141 116/126/114
f 114/122/111 116/126/114 117/127/115
f 118/128/116 88/208/85 87/123/112
f 118/129/116 117/176/115 119/130/117
f 120/131/118 89/135/86 88/132/85
f 120/131/118 119/130/117 121/133/119
f 122/134/120 91/138/88 89/135/86
f 121/133/119 123/139/122 124/136/121
f 122/134/120 124/136/121 93/137/91
f 123/139/122 125/142/123 98/140/95
f 124/136/121 98/140/95 95/141/93
f 125/142/123 123/139/122 126/143/124
f 127/145/125 128/149/127 129/146/126
f 125/147/123 129/146/126 99/97/96
f 128/149/127 130/190/161 131/150/128
f 129/146/126 131/150/128 100/151/129
f 131/150/128 130/190/161 132/152/130
f 133/153/131 102/100/98 100/151/129
f 133/154/131 132/194/130 134/155/132
f 135/156/133 104/105/101 102/157/98
f 135/156/133 134/155/132 136/158/134
f 137/159/135 106/109/103 104/105/101
f 137/159/135 136/158/134 138/160/136
f 139/161/137 108/112/105 106/109/103
f 139/162/137 138/202/136 140/163/138
f 141/164/139 110/116/107 108/165/105
f 141/164/139 140/163/138 142/166/140
f 115/167/141 112/119/109 110/116/107
f 140/163/138 143/201/169 144/168/142
f 142/166/140 144/168/142 145/169/143
f 146/170/144 116/126/114 115/167/141
f 146/170/144 145/169/143 147/171/145
f 148/172/146 117/127/115 116/126/114
f 148/173/146 147/206/145 149/174/147
f 150/175/148 119/130/117 117/176/115
f 149/174/147 151/178/150 152/177/149
f 150/175/148 152/177/149 121/133/119
f 151/178/150 153/179/151 126/143/124
f 152/177/149 126/143/124 123/139/122
f 153/179/151 151/178/150 154/180/152
f 153/179/151 155/181/153 156/182/154
f 157/183/155 127/144/125 126/143/124
f 157/184/155 156/209/154 158/185/156
f 159/186/157 128/149/127 127/145/125
f 159/186/157 158/185/156 160/187/158
f 161/188/159 130/190/161 128/149/127
f 160/187/158 162/210/174 163/189/160
f 163/189/160 132/152/130 130/190/161
f 163/191/160 162/211/174 164/192/162
f 165/193/163 134/155/132 132/194/130
f 165/193/163 164/192/162 166/195/164
f 167/196/165 136/158/134 134/155/132
f 167/196/165 166/195/164 168/197/166
f 169/198/167 138/160/136 136/158/134
f 169/199/167 168/212/166 170/200/168
f 143/201/169 140/163/138 138/202/136
f 171/203/170 144/168/142 143/201/169
f 171/203/170 172/204/171 145/169/143
f 172/204/171 173/213/173 147/171/145
f 174/205/172 149/174/147 147/206/145
f 174/205/172 154/180/152 151/178/150
f 81/78/78 79/76/76 78/75/75
f 23/22/22 22/21/21 20/18/18
f 25/23/23 24/25/25 7/3/3
