# Blender v3.6.9 OBJ File: 'v14_AlignTipWithCapsule.blend'
# www.blender.org
mtllib roy_k2v3_right.mtl
v 0.022586 0.016391 0.038630
v 0.023088 0.016495 0.038905
v 0.022631 0.015974 0.038040
v 0.022074 0.016652 0.039007
v 0.021286 0.016811 0.039319
v 0.022415 0.016926 0.039566
v 0.021905 0.016163 0.038227
v 0.021620 0.015629 0.037569
v 0.021215 0.016311 0.038472
v 0.020856 0.015762 0.037796
v 0.020646 0.016353 0.038640
v 0.020207 0.015948 0.038180
v 0.020382 0.016663 0.039246
v 0.020054 0.016904 0.039865
v 0.019653 0.016183 0.038720
v 0.019369 0.015692 0.038171
v 0.019075 0.016257 0.039146
v 0.018673 0.016286 0.039473
v 0.018755 0.015510 0.038257
v 0.018285 0.015371 0.038375
v 0.019096 0.014873 0.037411
v 0.020015 0.014436 0.036731
v 0.018676 0.014551 0.037307
v 0.019707 0.015350 0.037646
v 0.020380 0.015044 0.037155
v 0.021236 0.014974 0.036955
v 0.021923 0.015016 0.036967
v 0.021166 0.014307 0.036423
v 0.021139 0.013813 0.036077
v 0.022213 0.014545 0.036577
v 0.023007 0.015122 0.037158
v 0.022479 0.014137 0.036286
v 0.022685 0.013812 0.036069
v 0.023499 0.014829 0.036994
v 0.023845 0.014612 0.036891
v 0.023919 0.015748 0.038089
v 0.024307 0.015655 0.038131
v 0.023589 0.016565 0.039186
v 0.023343 0.015862 0.038047
v 0.022707 0.017108 0.040007
v 0.023937 0.016592 0.039374
v 0.024254 0.016603 0.039552
v 0.022913 0.017225 0.040323
v 0.023111 0.017327 0.040615
v 0.021389 0.017466 0.040828
v 0.019669 0.017145 0.040645
v 0.021402 0.017598 0.041196
v 0.021367 0.017322 0.040457
v 0.021342 0.017133 0.040000
v 0.019847 0.017040 0.040283
v 0.019498 0.017237 0.040999
v 0.021416 0.017642 0.041566
v 0.019380 0.017222 0.041362
v 0.023287 0.017385 0.040946
v 0.021484 0.017480 0.041943
v 0.019371 0.016997 0.041758
v 0.021602 0.017050 0.042325
v 0.023442 0.017255 0.041284
v 0.023581 0.016838 0.041649
v 0.024821 0.016434 0.040002
v 0.024580 0.016586 0.039755
v 0.024971 0.016032 0.040334
v 0.025298 0.015196 0.038368
v 0.025032 0.015425 0.038232
v 0.025439 0.014771 0.038664
v 0.024686 0.013862 0.036805
v 0.024466 0.014172 0.036745
v 0.023166 0.012819 0.035782
v 0.024814 0.013403 0.037099
v 0.023384 0.012409 0.036138
v 0.024903 0.012885 0.037466
v 0.025552 0.014245 0.039017
v 0.025013 0.012299 0.037895
v 0.023379 0.011851 0.036486
v 0.023490 0.011267 0.036926
v 0.021338 0.011331 0.036263
v 0.021232 0.011844 0.035874
v 0.019354 0.011482 0.036869
v 0.021469 0.010747 0.036705
v 0.019481 0.010882 0.037307
v 0.021616 0.010107 0.037192
v 0.019621 0.010219 0.037793
v 0.021803 0.009216 0.037868
v 0.023630 0.010627 0.037421
v 0.025144 0.011655 0.038384
v 0.023808 0.009763 0.038079
v 0.024042 0.008606 0.038966
v 0.025315 0.010802 0.039026
v 0.026001 0.012122 0.040520
v 0.025555 0.009648 0.039909
v 0.025834 0.008360 0.040907
v 0.026251 0.010958 0.041385
v 0.025937 0.012203 0.043024
v 0.026534 0.009669 0.042377
v 0.026248 0.010919 0.044006
v 0.025220 0.011745 0.045282
v 0.022937 0.012187 0.046379
v 0.024714 0.013100 0.044427
v 0.022611 0.013425 0.045347
v 0.024343 0.014254 0.043601
v 0.024087 0.015119 0.042952
v 0.022311 0.014536 0.044425
v 0.025649 0.013376 0.042188
v 0.025430 0.014248 0.041571
v 0.025260 0.014912 0.041110
v 0.025820 0.012987 0.039901
v 0.025680 0.013641 0.039428
v 0.023894 0.015765 0.042468
v 0.025107 0.015509 0.040697
v 0.023719 0.016340 0.042037
v 0.021721 0.016565 0.042732
v 0.021884 0.016011 0.043194
v 0.019570 0.016073 0.042561
v 0.019574 0.016614 0.042166
v 0.017917 0.014945 0.041501
v 0.019698 0.015521 0.043042
v 0.019851 0.014887 0.043601
v 0.018024 0.014384 0.041992
v 0.017393 0.012945 0.040336
v 0.018143 0.013742 0.042547
v 0.018297 0.012889 0.043277
v 0.017497 0.012285 0.040864
v 0.017634 0.011407 0.041570
v 0.018088 0.010988 0.039106
v 0.018238 0.010098 0.039783
v 0.017971 0.011661 0.038606
v 0.017864 0.012268 0.038158
v 0.017768 0.012803 0.037765
v 0.017301 0.013536 0.039865
v 0.017218 0.014058 0.039444
v 0.017146 0.014547 0.039078
v 0.017827 0.015461 0.041072
v 0.017742 0.015912 0.040674
v 0.017827 0.016197 0.040319
v 0.017257 0.014900 0.038792
v 0.018067 0.016300 0.040008
v 0.017544 0.015112 0.038611
v 0.018357 0.016296 0.039741
v 0.017915 0.015248 0.038486
v 0.018333 0.014287 0.037246
v 0.019511 0.013612 0.036259
v 0.018017 0.014020 0.037192
v 0.019322 0.013282 0.036093
v 0.017768 0.013702 0.037229
v 0.019177 0.012921 0.036020
v 0.017683 0.013286 0.037423
v 0.019147 0.012482 0.036141
v 0.021133 0.012319 0.035542
v 0.019242 0.012006 0.036483
v 0.021104 0.012731 0.035475
v 0.023031 0.013193 0.035742
v 0.021121 0.013106 0.035620
v 0.022865 0.013526 0.035888
v 0.021132 0.013452 0.035836
v 0.024162 0.014398 0.036806
v 0.024684 0.015551 0.038180
v 0.019715 0.013954 0.036446
v 0.019792 0.009327 0.038460
v 0.018425 0.008928 0.040696
v 0.017818 0.010254 0.042504
v 0.018619 0.007639 0.041724
v 0.020000 0.008152 0.039353
v 0.022033 0.008052 0.038752
v 0.020211 0.006848 0.040356
v 0.022263 0.006746 0.039741
v 0.024293 0.007299 0.039948
v 0.018018 0.008989 0.043553
v 0.018695 0.010492 0.045271
v 0.018492 0.011756 0.044228
v 0.020544 0.011706 0.046347
v 0.020286 0.012942 0.045286
v 0.020045 0.014049 0.044330
v 0.022071 0.015382 0.043721
v 0.022379 0.015444 0.037396
vt 0.181992 0.646094
vt 0.172536 0.646180
vt 0.177231 0.642066
vt 0.187897 0.645622
vt 0.180779 0.650984
vt 0.183175 0.639128
vt 0.188993 0.636545
vt 0.194723 0.642722
vt 0.189793 0.651470
vt 0.199204 0.647473
vt 0.179634 0.632366
vt 0.173563 0.635539
vt 0.185749 0.629217
vt 0.193340 0.633953
vt 0.192156 0.627652
vt 0.199023 0.627506
vt 0.199147 0.636199
vt 0.205298 0.637858
vt 0.205017 0.626029
vt 0.196199 0.621399
vt 0.190347 0.619837
vt 0.209382 0.625014
vt 0.202786 0.614074
vt 0.191175 0.612942
vt 0.199739 0.617162
vt 0.192105 0.608372
vt 0.182805 0.620550
vt 0.180668 0.613775
vt 0.179281 0.608428
vt 0.176461 0.624642
vt 0.171687 0.618998
vt 0.172547 0.629084
vt 0.168175 0.615060
vt 0.162229 0.625764
vt 0.167004 0.627174
vt 0.167310 0.637091
vt 0.162213 0.638270
vt 0.158487 0.624649
vt 0.158572 0.639129
vt 0.166086 0.652078
vt 0.168720 0.649667
vt 0.178372 0.659256
vt 0.179435 0.655895
vt 0.191077 0.656205
vt 0.177361 0.662361
vt 0.192765 0.662785
vt 0.191985 0.659594
vt 0.202263 0.650532
vt 0.204744 0.653021
vt 0.207252 0.655420
vt 0.209367 0.638977
vt 0.212884 0.639908
vt 0.212888 0.624186
vt 0.216343 0.640817
vt 0.209723 0.657728
vt 0.193805 0.666070
vt 0.133369 0.430767
vt 0.136193 0.424106
vt 0.134862 0.431119
vt 0.134923 0.504847
vt 0.133988 0.498023
vt 0.136193 0.504285
vt 0.131581 0.429947
vt 0.134827 0.423601
vt 0.132956 0.505361
vt 0.132766 0.498384
vt 0.130941 0.498732
vt 0.131212 0.492072
vt 0.132415 0.491856
vt 0.131329 0.485474
vt 0.129490 0.492304
vt 0.130115 0.485538
vt 0.130749 0.478868
vt 0.128406 0.485652
vt 0.129505 0.478850
vt 0.130720 0.472272
vt 0.127581 0.472655
vt 0.129414 0.472218
vt 0.126375 0.485752
vt 0.127742 0.478904
vt 0.125720 0.478940
vt 0.124015 0.485875
vt 0.123374 0.479030
vt 0.125512 0.472309
vt 0.127727 0.465488
vt 0.123207 0.465517
vt 0.125627 0.465485
vt 0.125972 0.458721
vt 0.128124 0.458747
vt 0.123503 0.458698
vt 0.123135 0.472340
vt 0.120526 0.465574
vt 0.120750 0.458677
vt 0.116994 0.458588
vt 0.116769 0.465613
vt 0.120466 0.472448
vt 0.116847 0.472567
vt 0.120734 0.479186
vt 0.117194 0.479382
vt 0.111793 0.465634
vt 0.112281 0.479704
vt 0.111910 0.472735
vt 0.112937 0.486741
vt 0.117842 0.486325
vt 0.121375 0.486079
vt 0.106651 0.480118
vt 0.107323 0.487293
vt 0.113874 0.493730
vt 0.118791 0.493284
vt 0.108271 0.494394
vt 0.109343 0.500654
vt 0.111123 0.509368
vt 0.115120 0.500647
vt 0.116734 0.508435
vt 0.120075 0.500246
vt 0.121744 0.507575
vt 0.122376 0.492957
vt 0.123766 0.499793
vt 0.125549 0.506897
vt 0.125056 0.492720
vt 0.126486 0.499435
vt 0.127429 0.492502
vt 0.128880 0.499100
vt 0.130834 0.505891
vt 0.128372 0.506381
vt 0.126931 0.429301
vt 0.130753 0.422492
vt 0.129355 0.429858
vt 0.130381 0.437623
vt 0.128186 0.437273
vt 0.125730 0.436821
vt 0.124113 0.428647
vt 0.128312 0.421800
vt 0.122913 0.436324
vt 0.124760 0.444332
vt 0.121946 0.444013
vt 0.119151 0.435696
vt 0.118158 0.443581
vt 0.121221 0.451520
vt 0.124024 0.451671
vt 0.117456 0.451278
vt 0.126528 0.451801
vt 0.128722 0.451911
vt 0.127258 0.444613
vt 0.129464 0.444876
vt 0.132356 0.438007
vt 0.131511 0.445050
vt 0.130693 0.451980
vt 0.133885 0.438261
vt 0.133031 0.445230
vt 0.210484 0.606496
vt 0.216284 0.623480
vt 0.207890 0.609070
vt 0.219865 0.622679
vt 0.205293 0.611602
vt 0.192991 0.604662
vt 0.193771 0.601056
vt 0.178303 0.604687
vt 0.177375 0.601114
vt 0.194565 0.597482
vt 0.132249 0.452046
vt 0.131594 0.458814
vt 0.130075 0.458772
vt 0.131066 0.465585
vt 0.129647 0.465478
vt 0.151749 0.622508
vt 0.163104 0.609568
vt 0.155187 0.623685
vt 0.160734 0.606792
vt 0.165556 0.612256
vt 0.155150 0.639907
vt 0.151749 0.640690
vt 0.160866 0.656647
vt 0.163467 0.654455
vt 0.176287 0.665710
vt 0.112395 0.450887
vt 0.106714 0.450384
vt 0.113124 0.442993
vt 0.106272 0.458149
vt 0.106124 0.465578
vt 0.111962 0.458413
vt 0.106253 0.472881
vt 0.107483 0.442275
vt 0.114143 0.434919
vt 0.108536 0.434120
vt 0.115425 0.426831
vt 0.109870 0.425759
vt 0.116872 0.418823
vt 0.120379 0.427835
vt 0.121788 0.420037
vt 0.125531 0.421018
vt 0.219631 0.641784
vt 0.132891 0.423044
vt 0.176441 0.597678
vt 0.111377 0.417508
vn 0.0880 0.8391 -0.5368
vn 0.1682 0.7730 -0.6116
vn 0.0932 0.7838 -0.6140
vn 0.0268 0.8705 -0.4915
vn 0.1397 0.8498 -0.5083
vn 0.0094 0.8091 -0.5876
vn -0.0621 0.8286 -0.5564
vn -0.0572 0.8879 -0.4565
vn 0.0607 0.8973 -0.4372
vn -0.0538 0.9158 -0.3980
vn -0.0245 0.7409 -0.6711
vn 0.0655 0.7216 -0.6892
vn -0.1098 0.7529 -0.6489
vn -0.1316 0.8346 -0.5349
vn -0.1797 0.7792 -0.6004
vn -0.2402 0.8169 -0.5243
vn -0.1606 0.8720 -0.4623
vn -0.1900 0.8919 -0.4104
vn -0.2978 0.8235 -0.4828
vn -0.2751 0.7503 -0.6011
vn -0.2320 0.7022 -0.6731
vn -0.3373 0.8250 -0.4534
vn -0.3877 0.7177 -0.5784
vn -0.2929 0.6546 -0.6970
vn -0.3380 0.7314 -0.5922
vn -0.3350 0.6249 -0.7052
vn -0.1634 0.6681 -0.7259
vn -0.1976 0.6098 -0.7675
vn -0.2217 0.5765 -0.7864
vn -0.0743 0.6606 -0.7470
vn -0.0805 0.5971 -0.7981
vn 0.0089 0.6653 -0.7465
vn -0.0817 0.5628 -0.8225
vn 0.0601 0.5905 -0.8048
vn 0.0375 0.6200 -0.7837
vn 0.1311 0.6850 -0.7167
vn 0.1759 0.6590 -0.7313
vn 0.0745 0.5733 -0.8160
vn 0.2099 0.6404 -0.7388
vn 0.2670 0.7499 -0.6053
vn 0.2253 0.7605 -0.6090
vn 0.2145 0.8544 -0.4733
vn 0.1795 0.8547 -0.4870
vn 0.0834 0.9100 -0.4061
vn 0.2747 0.8546 -0.4407
vn 0.1485 0.9366 -0.3172
vn 0.0937 0.9157 -0.3907
vn -0.0529 0.9288 -0.3668
vn -0.0523 0.9370 -0.3453
vn -0.0447 0.9762 -0.2124
vn -0.2090 0.9020 -0.3779
vn -0.2235 0.9075 -0.3557
vn -0.3678 0.8230 -0.4329
vn -0.3014 0.9334 -0.1946
vn -0.0252 0.9839 0.1771
vn 0.3053 0.9521 -0.0167
vn -0.4816 0.6516 0.5861
vn -0.4317 0.8775 0.2087
vn 0.0246 0.8117 0.5836
vn -0.4187 0.5437 0.7274
vn 0.0596 0.6611 0.7480
vn 0.4665 0.7984 0.3807
vn 0.5292 0.6312 0.5671
vn 0.7675 0.6393 0.0476
vn 0.4998 0.8245 -0.2652
vn 0.5615 0.6397 -0.5249
vn 0.8621 0.4491 0.2349
vn 0.8706 0.3669 -0.3278
vn 0.4780 0.4304 -0.7657
vn 0.9743 0.1512 -0.1671
vn 0.7394 0.0637 -0.6703
vn 0.2576 0.2212 -0.9406
vn 0.4959 -0.4311 -0.7538
vn 0.3978 -0.2350 -0.8869
vn 0.9828 0.1088 -0.1494
vn 0.8280 -0.1716 -0.5339
vn 0.8302 -0.2208 -0.5119
vn 0.9825 0.0978 -0.1585
vn 0.8249 -0.2246 -0.5188
vn 0.4521 -0.4780 -0.7530
vn -0.0238 -0.5909 -0.8064
vn -0.0176 -0.6061 -0.7952
vn -0.0221 -0.6063 -0.7949
vn -0.5030 -0.5782 -0.6424
vn -0.5070 -0.5717 -0.6450
vn -0.4982 -0.5782 -0.6462
vn 0.4602 -0.4767 -0.7490
vn -0.0112 -0.6063 -0.7952
vn -0.4914 -0.5803 -0.6495
vn -0.4875 -0.5816 -0.6512
vn -0.0081 -0.6056 -0.7958
vn 0.4639 -0.4751 -0.7477
vn 0.4635 -0.4758 -0.7475
vn 0.8235 -0.2254 -0.5205
vn 0.8205 -0.2289 -0.5238
vn -0.0065 -0.6046 -0.7965
vn 0.8183 -0.2314 -0.5261
vn 0.4640 -0.4756 -0.7473
vn 0.9801 0.0751 -0.1836
vn 0.9812 0.0823 -0.1744
vn 0.9822 0.0914 -0.1640
vn 0.8177 -0.2316 -0.5270
vn 0.9796 0.0687 -0.1886
vn 0.9091 0.3686 0.1939
vn 0.8990 0.3804 0.2169
vn 0.9179 0.3542 0.1791
vn 0.6581 0.5532 0.5108
vn 0.1510 0.6452 0.7489
vn 0.6077 0.5794 0.5431
vn 0.1233 0.6521 0.7481
vn 0.5839 0.5905 0.5571
vn 0.1030 0.6519 0.7513
vn 0.8910 0.3902 0.2320
vn 0.5692 0.5951 0.5674
vn 0.0860 0.6528 0.7526
vn 0.8845 0.3971 0.2447
vn 0.5548 0.5996 0.5768
vn 0.8782 0.4047 0.2551
vn 0.5401 0.6046 0.5854
vn 0.0586 0.6488 0.7587
vn 0.0703 0.6521 0.7549
vn -0.4466 0.5275 0.7227
vn -0.4639 0.5211 0.7164
vn -0.8437 0.2522 0.4739
vn -0.8454 0.2491 0.4725
vn -0.8424 0.2535 0.4755
vn -0.4368 0.5318 0.7256
vn -0.8399 0.2570 0.4781
vn -0.9924 -0.0899 0.0835
vn -0.9925 -0.0898 0.0832
vn -0.8367 0.2597 0.4821
vn -0.9925 -0.0898 0.0835
vn -0.8550 -0.3975 -0.3331
vn -0.8575 -0.3951 -0.3295
vn -0.8533 -0.3991 -0.3355
vn -0.8599 -0.3931 -0.3258
vn -0.8619 -0.3886 -0.3257
vn -0.9924 -0.0895 0.0846
vn -0.9926 -0.0896 0.0817
vn -0.8547 0.3845 0.3487
vn -0.9983 0.0533 -0.0240
vn -0.8702 -0.2360 -0.4326
vn -0.7540 0.6564 0.0224
vn -0.8800 0.3758 -0.2905
vn -0.5098 0.8045 -0.3046
vn -0.5952 0.6279 -0.5014
vn -0.4290 0.7037 -0.5664
vn -0.3696 0.6048 -0.7054
vn -0.5127 0.4829 -0.7099
vn -0.2387 0.5542 -0.7974
vn -0.3164 0.4226 -0.8493
vn -0.7645 0.1437 -0.6284
vn -0.4636 0.0389 -0.8852
vn -0.5199 -0.3947 -0.7576
vn -0.0836 0.0710 -0.9940
vn -0.0579 -0.3899 -0.9190
vn -0.0799 0.4376 -0.8956
vn 0.1185 0.5072 -0.8536
vn -0.0813 0.5401 -0.8377
vn 0.2610 0.6090 -0.7490
vn 0.3235 0.7359 -0.5948
vn -0.8537 -0.3976 -0.3362
vn -0.8566 -0.3954 -0.3314
vn -0.9926 -0.0878 0.0841
vn -0.4896 -0.5810 -0.6502
vn -0.0110 -0.6056 -0.7957
vn -0.4862 -0.5813 -0.6525
vn 0.4607 -0.4765 -0.7488
vn -0.9925 -0.0836 0.0892
vn -0.8340 0.2635 0.4847
vn -0.8333 0.2646 0.4854
vn -0.4170 0.5389 0.7319
vn -0.4075 0.5411 0.7356
vn -0.4267 0.5346 0.7295
s 1
f 1/1/1 39/2/2 3/3/3
f 4/4/4 2/5/5 1/1/1
f 1/1/1 7/6/6 4/4/4
f 4/4/4 9/7/7 5/8/8
f 6/9/9 5/8/8 49/10/10
f 8/11/11 3/3/3 174/12/12
f 10/13/13 7/6/6 8/11/11
f 11/14/14 10/13/13 12/15/15
f 11/14/14 5/8/8 9/7/7
f 11/14/14 15/16/16 13/17/17
f 49/10/10 13/17/17 14/18/18
f 17/19/19 13/17/17 15/16/16
f 16/20/20 12/15/15 24/21/21
f 16/20/20 17/19/19 15/16/16
f 18/22/22 14/18/18 17/19/19
f 17/19/19 20/23/23 18/22/22
f 16/20/20 21/24/24 19/25/25
f 23/26/26 19/25/25 21/24/24
f 21/24/24 25/27/27 22/28/28
f 157/29/29 21/24/24 22/28/28
f 24/21/21 10/13/13 25/27/27
f 10/13/13 26/30/30 25/27/27
f 25/27/27 28/31/31 22/28/28
f 27/32/32 8/11/11 174/12/12
f 27/32/32 28/31/31 26/30/30
f 29/33/33 22/28/28 28/31/31
f 32/34/34 28/31/31 30/35/35
f 27/32/32 31/36/36 30/35/35
f 34/37/37 30/35/35 31/36/36
f 33/38/38 29/33/33 32/34/34
f 35/39/39 32/34/34 34/37/37
f 37/40/40 34/37/37 36/41/41
f 36/41/41 31/36/36 39/2/2
f 41/42/42 36/41/41 38/43/43
f 38/43/43 39/2/2 2/5/5
f 174/12/12 39/2/2 31/36/36
f 38/43/43 6/9/9 40/44/44
f 40/44/44 41/42/42 38/43/43
f 42/45/45 37/40/40 41/42/42
f 44/46/46 41/42/42 43/47/47
f 48/48/48 43/47/47 40/44/44
f 44/46/46 45/49/49 47/50/50
f 45/49/49 50/51/51 46/52/52
f 46/52/52 47/50/50 45/49/49
f 49/10/10 40/44/44 6/9/9
f 14/18/18 48/48/48 49/10/10
f 138/53/53 50/51/51 18/22/22
f 51/54/54 52/55/55 47/50/50
f 47/50/50 54/56/56 44/46/46
f 56/57/57 52/58/55 53/59/58
f 55/60/59 54/61/56 52/62/55
f 114/63/60 55/64/59 56/57/57
f 57/65/61 58/66/62 55/60/59
f 59/67/63 60/68/64 58/66/62
f 58/66/62 61/69/65 54/61/56
f 60/68/64 64/70/66 61/69/65
f 62/71/67 63/72/68 60/68/64
f 63/72/68 67/73/69 64/70/66
f 65/74/70 66/75/71 63/72/68
f 66/75/71 151/76/72 67/73/69
f 66/75/71 70/77/73 68/78/74
f 72/79/75 69/80/76 65/74/70
f 71/81/77 70/77/73 69/80/76
f 107/82/78 71/81/77 72/79/75
f 73/83/79 74/84/80 71/81/77
f 74/84/80 77/85/81 70/77/73
f 74/84/80 79/86/82 76/87/83
f 77/85/81 78/88/84 149/89/85
f 80/90/86 76/87/83 79/86/82
f 75/91/87 81/92/88 79/86/82
f 79/86/82 82/93/89 80/90/86
f 158/94/90 81/92/88 83/95/91
f 83/95/91 84/96/92 86/97/93
f 84/96/92 73/83/79 85/98/94
f 88/99/95 84/96/92 85/98/94
f 86/97/93 163/100/96 83/95/91
f 86/97/93 90/101/97 87/102/98
f 92/103/99 88/99/95 89/104/100
f 89/104/100 85/98/94 106/105/101
f 91/106/102 87/102/98 90/101/97
f 94/107/103 90/101/97 92/103/99
f 93/108/104 89/104/100 103/109/105
f 95/110/106 92/103/99 93/108/104
f 93/108/104 96/111/107 95/110/106
f 97/112/108 98/113/109 99/114/110
f 99/114/110 100/115/111 102/116/112
f 98/113/109 103/109/105 100/115/111
f 100/115/111 104/117/113 101/118/114
f 102/116/112 101/118/114 173/119/115
f 103/109/105 106/105/101 104/117/113
f 104/117/113 107/82/78 105/120/116
f 101/118/114 105/120/116 108/121/117
f 106/105/101 73/83/79 107/82/78
f 105/120/116 72/79/75 109/122/118
f 108/121/117 109/122/118 110/123/119
f 109/122/118 65/74/70 62/71/67
f 110/123/119 62/71/67 59/67/63
f 111/124/120 59/67/63 57/65/61
f 112/125/121 110/123/119 111/124/120
f 116/126/122 111/127/120 113/128/123
f 111/127/120 114/63/60 113/128/123
f 113/128/123 132/129/124 115/130/125
f 118/131/126 113/128/123 115/130/125
f 117/132/127 112/133/121 116/126/122
f 120/134/128 116/126/122 118/131/126
f 115/130/125 119/135/129 118/131/126
f 122/136/130 118/131/126 119/135/129
f 121/137/131 117/132/127 120/134/128
f 123/138/132 120/134/128 122/136/130
f 124/139/133 123/138/132 122/136/130
f 126/140/134 122/136/130 119/135/129
f 125/141/135 82/93/89 158/94/90
f 80/90/86 124/139/133 126/140/134
f 126/140/134 78/88/84 80/90/86
f 119/135/129 127/142/136 126/140/134
f 149/89/85 127/142/136 128/143/137
f 128/143/137 129/144/138 130/145/139
f 129/144/138 132/129/124 130/145/139
f 130/145/139 133/146/140 131/147/141
f 130/145/139 146/148/142 128/143/137
f 56/57/57 132/129/124 114/63/60
f 133/146/140 53/59/58 134/149/143
f 131/147/141 134/149/143 135/150/144
f 135/151/144 136/152/145 137/153/146
f 134/154/143 51/54/54 136/152/145
f 137/153/146 138/53/53 139/155/147
f 136/152/145 46/52/52 138/53/53
f 139/155/147 18/22/22 20/23/23
f 140/156/148 137/153/146 139/155/147
f 140/156/148 20/23/23 23/26/26
f 142/157/149 141/158/150 143/159/151
f 157/29/29 140/156/148 23/26/26
f 135/151/144 142/157/149 144/160/152
f 143/159/151 144/160/152 142/157/149
f 144/161/152 131/147/141 135/150/144
f 145/162/153 146/148/142 144/161/152
f 128/143/137 147/163/154 149/89/85
f 147/163/154 150/164/155 148/165/156
f 148/165/156 149/89/85 147/163/154
f 68/78/74 150/164/155 151/76/72
f 68/78/74 77/85/81 148/165/156
f 151/166/72 152/167/157 153/168/158
f 150/169/155 143/159/151 152/167/157
f 153/168/158 154/170/159 33/38/38
f 152/167/157 141/158/150 154/170/159
f 154/170/159 157/29/29 29/33/33
f 155/171/160 33/38/38 35/39/39
f 67/172/69 153/168/158 155/171/160
f 64/173/66 155/171/160 156/174/161
f 156/174/161 35/39/39 37/40/40
f 61/175/65 156/174/161 42/45/45
f 158/94/90 159/176/162 125/141/135
f 159/176/162 123/138/132 125/141/135
f 161/177/163 160/178/164 159/176/162
f 159/176/162 164/179/165 161/177/163
f 165/180/166 162/181/167 163/100/96
f 83/95/91 162/181/167 158/94/90
f 166/182/168 163/100/96 87/102/98
f 167/183/169 169/184/170 160/178/164
f 168/185/171 171/186/172 169/184/170
f 170/187/173 99/188/110 171/186/172
f 169/184/170 172/189/174 121/137/131
f 171/186/172 102/190/112 172/189/174
f 172/189/174 173/191/115 117/132/127
f 160/178/164 121/137/131 123/138/132
f 173/119/115 108/121/117 112/125/121
f 44/46/46 61/175/65 42/45/45
f 1/1/1 2/5/5 39/2/2
f 4/4/4 6/9/9 2/5/5
f 1/1/1 3/3/3 7/6/6
f 4/4/4 7/6/6 9/7/7
f 6/9/9 4/4/4 5/8/8
f 8/11/11 7/6/6 3/3/3
f 10/13/13 9/7/7 7/6/6
f 11/14/14 9/7/7 10/13/13
f 11/14/14 13/17/17 5/8/8
f 11/14/14 12/15/15 15/16/16
f 49/10/10 5/8/8 13/17/17
f 17/19/19 14/18/18 13/17/17
f 16/20/20 15/16/16 12/15/15
f 16/20/20 19/25/25 17/19/19
f 18/22/22 50/51/51 14/18/18
f 17/19/19 19/25/25 20/23/23
f 16/20/20 24/21/21 21/24/24
f 23/26/26 20/23/23 19/25/25
f 21/24/24 24/21/21 25/27/27
f 157/29/29 23/26/26 21/24/24
f 24/21/21 12/15/15 10/13/13
f 10/13/13 8/11/11 26/30/30
f 25/27/27 26/30/30 28/31/31
f 27/32/32 26/30/30 8/11/11
f 27/32/32 30/35/35 28/31/31
f 29/33/33 157/29/29 22/28/28
f 32/34/34 29/33/33 28/31/31
f 27/32/32 174/12/12 31/36/36
f 34/37/37 32/34/34 30/35/35
f 33/38/38 154/170/159 29/33/33
f 35/39/39 33/38/38 32/34/34
f 37/40/40 35/39/39 34/37/37
f 36/41/41 34/37/37 31/36/36
f 41/42/42 37/40/40 36/41/41
f 38/43/43 36/41/41 39/2/2
f 174/12/12 3/3/3 39/2/2
f 38/43/43 2/5/5 6/9/9
f 40/44/44 43/47/47 41/42/42
f 42/45/45 156/174/161 37/40/40
f 44/46/46 42/45/45 41/42/42
f 48/48/48 45/49/49 43/47/47
f 44/46/46 43/47/47 45/49/49
f 45/49/49 48/48/48 50/51/51
f 46/52/52 51/54/54 47/50/50
f 49/10/10 48/48/48 40/44/44
f 14/18/18 50/51/51 48/48/48
f 138/53/53 46/52/52 50/51/51
f 51/54/54 53/192/58 52/55/55
f 47/50/50 52/55/55 54/56/56
f 56/57/57 55/64/59 52/58/55
f 55/60/59 58/66/62 54/61/56
f 114/63/60 57/193/61 55/64/59
f 57/65/61 59/67/63 58/66/62
f 59/67/63 62/71/67 60/68/64
f 58/66/62 60/68/64 61/69/65
f 60/68/64 63/72/68 64/70/66
f 62/71/67 65/74/70 63/72/68
f 63/72/68 66/75/71 67/73/69
f 65/74/70 69/80/76 66/75/71
f 66/75/71 68/78/74 151/76/72
f 66/75/71 69/80/76 70/77/73
f 72/79/75 71/81/77 69/80/76
f 71/81/77 74/84/80 70/77/73
f 107/82/78 73/83/79 71/81/77
f 73/83/79 75/91/87 74/84/80
f 74/84/80 76/87/83 77/85/81
f 74/84/80 75/91/87 79/86/82
f 77/85/81 76/87/83 78/88/84
f 80/90/86 78/88/84 76/87/83
f 75/91/87 84/96/92 81/92/88
f 79/86/82 81/92/88 82/93/89
f 158/94/90 82/93/89 81/92/88
f 83/95/91 81/92/88 84/96/92
f 84/96/92 75/91/87 73/83/79
f 88/99/95 86/97/93 84/96/92
f 86/97/93 87/102/98 163/100/96
f 86/97/93 88/99/95 90/101/97
f 92/103/99 90/101/97 88/99/95
f 89/104/100 88/99/95 85/98/94
f 91/106/102 166/182/168 87/102/98
f 94/107/103 91/106/102 90/101/97
f 93/108/104 92/103/99 89/104/100
f 95/110/106 94/107/103 92/103/99
f 93/108/104 98/113/109 96/111/107
f 97/112/108 96/111/107 98/113/109
f 99/114/110 98/113/109 100/115/111
f 98/113/109 93/108/104 103/109/105
f 100/115/111 103/109/105 104/117/113
f 102/116/112 100/115/111 101/118/114
f 103/109/105 89/104/100 106/105/101
f 104/117/113 106/105/101 107/82/78
f 101/118/114 104/117/113 105/120/116
f 106/105/101 85/98/94 73/83/79
f 105/120/116 107/82/78 72/79/75
f 108/121/117 105/120/116 109/122/118
f 109/122/118 72/79/75 65/74/70
f 110/123/119 109/122/118 62/71/67
f 111/124/120 110/123/119 59/67/63
f 112/125/121 108/121/117 110/123/119
f 116/126/122 112/133/121 111/127/120
f 111/127/120 57/193/61 114/63/60
f 113/128/123 114/63/60 132/129/124
f 118/131/126 116/126/122 113/128/123
f 117/132/127 173/191/115 112/133/121
f 120/134/128 117/132/127 116/126/122
f 115/130/125 129/144/138 119/135/129
f 122/136/130 120/134/128 118/131/126
f 121/137/131 172/189/174 117/132/127
f 123/138/132 121/137/131 120/134/128
f 124/139/133 125/141/135 123/138/132
f 126/140/134 124/139/133 122/136/130
f 125/141/135 124/139/133 82/93/89
f 80/90/86 82/93/89 124/139/133
f 126/140/134 127/142/136 78/88/84
f 119/135/129 129/144/138 127/142/136
f 149/89/85 78/88/84 127/142/136
f 128/143/137 127/142/136 129/144/138
f 129/144/138 115/130/125 132/129/124
f 130/145/139 132/129/124 133/146/140
f 130/145/139 131/147/141 146/148/142
f 56/57/57 133/146/140 132/129/124
f 133/146/140 56/57/57 53/59/58
f 131/147/141 133/146/140 134/149/143
f 135/151/144 134/154/143 136/152/145
f 134/154/143 53/192/58 51/54/54
f 137/153/146 136/152/145 138/53/53
f 136/152/145 51/54/54 46/52/52
f 139/155/147 138/53/53 18/22/22
f 140/156/148 142/157/149 137/153/146
f 140/156/148 139/155/147 20/23/23
f 142/157/149 140/156/148 141/158/150
f 157/29/29 141/158/150 140/156/148
f 135/151/144 137/153/146 142/157/149
f 143/159/151 145/194/153 144/160/152
f 144/161/152 146/148/142 131/147/141
f 145/162/153 147/163/154 146/148/142
f 128/143/137 146/148/142 147/163/154
f 147/163/154 145/162/153 150/164/155
f 148/165/156 77/85/81 149/89/85
f 68/78/74 148/165/156 150/164/155
f 68/78/74 70/77/73 77/85/81
f 151/166/72 150/169/155 152/167/157
f 150/169/155 145/194/153 143/159/151
f 153/168/158 152/167/157 154/170/159
f 152/167/157 143/159/151 141/158/150
f 154/170/159 141/158/150 157/29/29
f 155/171/160 153/168/158 33/38/38
f 67/172/69 151/166/72 153/168/158
f 64/173/66 67/172/69 155/171/160
f 156/174/161 155/171/160 35/39/39
f 61/175/65 64/173/66 156/174/161
f 158/94/90 162/181/167 159/176/162
f 159/176/162 160/178/164 123/138/132
f 161/177/163 167/183/169 160/178/164
f 159/176/162 162/181/167 164/179/165
f 165/180/166 164/179/165 162/181/167
f 83/95/91 163/100/96 162/181/167
f 166/182/168 165/180/166 163/100/96
f 167/183/169 168/185/171 169/184/170
f 168/185/171 170/187/173 171/186/172
f 170/187/173 97/195/108 99/188/110
f 169/184/170 171/186/172 172/189/174
f 171/186/172 99/188/110 102/190/112
f 172/189/174 102/190/112 173/191/115
f 160/178/164 169/184/170 121/137/131
f 173/119/115 101/118/114 108/121/117
f 44/46/46 54/56/56 61/175/65
